<?xml version="1.0" encoding="UTF-8" standalone="no"?><svg xmlns="http://www.w3.org/2000/svg" xmlns:xlink="http://www.w3.org/1999/xlink" contentScriptType="application/ecmascript" contentStyleType="text/css" height="557px" preserveAspectRatio="none" style="width:256px;height:557px;background:#FFFFFF;" version="1.1" viewBox="0 0 256 557" width="256px" zoomAndPan="magnify"><defs><filter height="300%" id="fq9ismh8t3o8y" width="300%" x="-1" y="-1"><feGaussianBlur result="blurOut" stdDeviation="2.0"/><feColorMatrix in="blurOut" result="blurOut2" type="matrix" values="0 0 0 0 0 0 0 0 0 0 0 0 0 0 0 0 0 0 .4 0"/><feOffset dx="4.0" dy="4.0" in="blurOut2" result="blurOut3"/><feBlend in="SourceGraphic" in2="blurOut3" mode="normal"/></filter></defs><g><ellipse cx="125" cy="20" fill="#000000" filter="url(#fq9ismh8t3o8y)" rx="10" ry="10" style="stroke:none;stroke-width:1.0;"/><rect fill="#FEFECE" filter="url(#fq9ismh8t3o8y)" height="35.0938" rx="12.5" ry="12.5" style="stroke:#A80036;stroke-width:1.5;" width="88" x="81" y="98.918"/><text fill="#000000" font-family="sans-serif" font-size="12" lengthAdjust="spacing" textLength="68" x="91" y="121.375">Open Profile</text><polygon fill="#FEFECE" filter="url(#fq9ismh8t3o8y)" points="72,50,178,50,190,62,178,74,72,74,60,62,72,50" style="stroke:#A80036;stroke-width:1.5;"/><text fill="#000000" font-family="sans-serif" font-size="11" lengthAdjust="spacing" textLength="18" x="129" y="85.4189">yes</text><text fill="#000000" font-family="sans-serif" font-size="11" lengthAdjust="spacing" textLength="106" x="72" y="66.501">update existing profile</text><text fill="#000000" font-family="sans-serif" font-size="11" lengthAdjust="spacing" textLength="12" x="190" y="59.583">no</text><polygon fill="#FEFECE" filter="url(#fq9ismh8t3o8y)" points="125,154.0117,137,166.0117,125,178.0117,113,166.0117,125,154.0117" style="stroke:#A80036;stroke-width:1.5;"/><rect fill="#FEFECE" filter="url(#fq9ismh8t3o8y)" height="50.1875" rx="12.5" ry="12.5" style="stroke:#A80036;stroke-width:1.5;" width="113" x="68.5" y="198.0117"/><text fill="#000000" font-family="sans-serif" font-size="12" lengthAdjust="spacing" textLength="93" x="78.5" y="220.4688">Import (aditional)</text><text fill="#000000" font-family="sans-serif" font-size="12" lengthAdjust="spacing" textLength="70" x="78.5" y="235.5625">vocabularies</text><rect fill="#FEFECE" filter="url(#fq9ismh8t3o8y)" height="50.1875" rx="12.5" ry="12.5" style="stroke:#A80036;stroke-width:1.5;" width="228" x="11" y="268.1992"/><text fill="#000000" font-family="sans-serif" font-size="12" lengthAdjust="spacing" textLength="208" x="21" y="290.6563">Select (aditional) classes + properties</text><text fill="#000000" font-family="sans-serif" font-size="12" lengthAdjust="spacing" textLength="156" x="21" y="305.75">and set desired cardinalities</text><rect fill="#FEFECE" filter="url(#fq9ismh8t3o8y)" height="35.0938" rx="12.5" ry="12.5" style="stroke:#A80036;stroke-width:1.5;" width="115" x="67.5" y="338.3867"/><text fill="#000000" font-family="sans-serif" font-size="12" lengthAdjust="spacing" textLength="95" x="77.5" y="360.8438">Set Rootobject(s)</text><rect fill="#FEFECE" filter="url(#fq9ismh8t3o8y)" height="50.1875" rx="12.5" ry="12.5" style="stroke:#A80036;stroke-width:1.5;" width="153" x="48.5" y="393.4805"/><text fill="#000000" font-family="sans-serif" font-size="12" lengthAdjust="spacing" textLength="133" x="58.5" y="415.9375">Indicate which schemas</text><text fill="#000000" font-family="sans-serif" font-size="12" lengthAdjust="spacing" textLength="107" x="58.5" y="431.0313">are to be generated</text><rect fill="#FEFECE" filter="url(#fq9ismh8t3o8y)" height="35.0938" rx="12.5" ry="12.5" style="stroke:#A80036;stroke-width:1.5;" width="83" x="83.5" y="463.668"/><text fill="#000000" font-family="sans-serif" font-size="12" lengthAdjust="spacing" textLength="63" x="93.5" y="486.125">Press  "Go"</text><ellipse cx="125" cy="529.7617" fill="#FFFFFF" filter="url(#fq9ismh8t3o8y)" rx="11" ry="11" style="stroke:#000000;stroke-width:1.0;"/><ellipse cx="125" cy="529.7617" fill="#000000" rx="6" ry="6" style="stroke:#7F7F7F;stroke-width:1.0;"/><line style="stroke:#A80036;stroke-width:1.5;" x1="125" x2="125" y1="74" y2="98.918"/><polygon fill="#A80036" points="121,88.918,125,98.918,129,88.918,125,92.918" style="stroke:#A80036;stroke-width:1.0;"/><line style="stroke:#A80036;stroke-width:1.5;" x1="190" x2="202" y1="62" y2="62"/><polygon fill="#A80036" points="198,106.4648,202,116.4648,206,106.4648,202,110.4648" style="stroke:#A80036;stroke-width:1.5;"/><line style="stroke:#A80036;stroke-width:1.5;" x1="202" x2="202" y1="62" y2="166.0117"/><line style="stroke:#A80036;stroke-width:1.5;" x1="202" x2="137" y1="166.0117" y2="166.0117"/><polygon fill="#A80036" points="147,162.0117,137,166.0117,147,170.0117,143,166.0117" style="stroke:#A80036;stroke-width:1.0;"/><line style="stroke:#A80036;stroke-width:1.5;" x1="125" x2="125" y1="134.0117" y2="154.0117"/><polygon fill="#A80036" points="121,144.0117,125,154.0117,129,144.0117,125,148.0117" style="stroke:#A80036;stroke-width:1.0;"/><line style="stroke:#A80036;stroke-width:1.5;" x1="125" x2="125" y1="30" y2="50"/><polygon fill="#A80036" points="121,40,125,50,129,40,125,44" style="stroke:#A80036;stroke-width:1.0;"/><line style="stroke:#A80036;stroke-width:1.5;" x1="125" x2="125" y1="178.0117" y2="198.0117"/><polygon fill="#A80036" points="121,188.0117,125,198.0117,129,188.0117,125,192.0117" style="stroke:#A80036;stroke-width:1.0;"/><line style="stroke:#A80036;stroke-width:1.5;" x1="125" x2="125" y1="248.1992" y2="268.1992"/><polygon fill="#A80036" points="121,258.1992,125,268.1992,129,258.1992,125,262.1992" style="stroke:#A80036;stroke-width:1.0;"/><line style="stroke:#A80036;stroke-width:1.5;" x1="125" x2="125" y1="318.3867" y2="338.3867"/><polygon fill="#A80036" points="121,328.3867,125,338.3867,129,328.3867,125,332.3867" style="stroke:#A80036;stroke-width:1.0;"/><line style="stroke:#A80036;stroke-width:1.5;" x1="125" x2="125" y1="373.4805" y2="393.4805"/><polygon fill="#A80036" points="121,383.4805,125,393.4805,129,383.4805,125,387.4805" style="stroke:#A80036;stroke-width:1.0;"/><line style="stroke:#A80036;stroke-width:1.5;" x1="125" x2="125" y1="443.668" y2="463.668"/><polygon fill="#A80036" points="121,453.668,125,463.668,129,453.668,125,457.668" style="stroke:#A80036;stroke-width:1.0;"/><line style="stroke:#A80036;stroke-width:1.5;" x1="125" x2="125" y1="498.7617" y2="518.7617"/><polygon fill="#A80036" points="121,508.7617,125,518.7617,129,508.7617,125,512.7617" style="stroke:#A80036;stroke-width:1.0;"/><!--MD5=[3e943a5ae19f4efbc520a0e455ad1a82]
@startuml profilingProcess

start
if (update existing profile) then (yes)
:Open Profile;   
else (no)
endif 
:Import (aditional) 
vocabularies;
:Select (aditional) classes + properties
and set desired cardinalities;
:Set Rootobject(s); 
:Indicate which schemas 
are to be generated;
:Press  "Go"; 
stop

@enduml

PlantUML version 1.2022.0(Tue Jan 11 17:16:42 CET 2022)
(GPL source distribution)
Java Runtime: Java(TM) SE Runtime Environment
JVM: Java HotSpot(TM) 64-Bit Server VM
Default Encoding: Cp1252
Language: nl
Country: NL
--></g></svg>