<?xml version="1.0" encoding="UTF-8" standalone="no"?><svg xmlns="http://www.w3.org/2000/svg" xmlns:xlink="http://www.w3.org/1999/xlink" contentScriptType="application/ecmascript" contentStyleType="text/css" height="597px" preserveAspectRatio="none" style="width:520px;height:597px;background:#FFFFFF;" version="1.1" viewBox="0 0 520 597" width="520px" zoomAndPan="magnify"><defs><filter height="300%" id="f1lw40igochhsg" width="300%" x="-1" y="-1"><feGaussianBlur result="blurOut" stdDeviation="2.0"/><feColorMatrix in="blurOut" result="blurOut2" type="matrix" values="0 0 0 0 0 0 0 0 0 0 0 0 0 0 0 0 0 0 .4 0"/><feOffset dx="4.0" dy="4.0" in="blurOut2" result="blurOut3"/><feBlend in="SourceGraphic" in2="blurOut3" mode="normal"/></filter></defs><g><!--MD5=[f7c487c12c1a6181bc7ac6b7a88c5913]
class prof:ResourceDescriptor--><rect codeLine="2" fill="#FEFECE" filter="url(#f1lw40igochhsg)" height="48" id="prof:ResourceDescriptor" style="stroke:#A80036;stroke-width:1.5;" width="167" x="186.5" y="382"/><ellipse cx="201.5" cy="398" fill="#ADD1B2" rx="11" ry="11" style="stroke:#A80036;stroke-width:1.0;"/><path d="M204.2656,393.875 Q204.4219,393.6563 204.6094,393.5469 Q204.7969,393.4375 205.0156,393.4375 Q205.3906,393.4375 205.625,393.6953 Q205.8594,393.9531 205.8594,394.5625 L205.8594,396.0156 Q205.8594,396.625 205.625,396.8906 Q205.3906,397.1563 205.0156,397.1563 Q204.6719,397.1563 204.4688,396.9531 Q204.2656,396.7656 204.1563,396.25 Q204.1094,395.8906 203.9219,395.7031 Q203.5938,395.3281 202.9844,395.1094 Q202.375,394.8906 201.75,394.8906 Q200.9844,394.8906 200.3516,395.2188 Q199.7188,395.5469 199.2266,396.2969 Q198.7344,397.0469 198.7344,398.0781 L198.7344,399.1719 Q198.7344,400.4063 199.625,401.2266 Q200.5156,402.0469 202.1094,402.0469 Q203.0469,402.0469 203.7031,401.7969 Q204.0938,401.6406 204.5156,401.2031 Q204.7813,400.9375 204.9297,400.8594 Q205.0781,400.7813 205.2813,400.7813 Q205.6094,400.7813 205.8672,401.0391 Q206.125,401.2969 206.125,401.6406 Q206.125,401.9844 205.7813,402.3906 Q205.2813,402.9688 204.4844,403.2969 Q203.4063,403.75 202.1094,403.75 Q200.5938,403.75 199.3906,403.125 Q198.4063,402.625 197.7188,401.5547 Q197.0313,400.4844 197.0313,399.2031 L197.0313,398.0469 Q197.0313,396.7188 197.6484,395.5703 Q198.2656,394.4219 199.3594,393.8047 Q200.4531,393.1875 201.6875,393.1875 Q202.4219,393.1875 203.0703,393.3516 Q203.7188,393.5156 204.2656,393.875 Z " fill="#000000"/><text fill="#000000" font-family="sans-serif" font-size="12" lengthAdjust="spacing" textLength="135" x="215.5" y="402.9102">prof:ResourceDescriptor</text><line style="stroke:#A80036;stroke-width:1.5;" x1="187.5" x2="352.5" y1="414" y2="414"/><line style="stroke:#A80036;stroke-width:1.5;" x1="187.5" x2="352.5" y1="422" y2="422"/><!--MD5=[ac1944d5ff8bac963315f1a5e9b43d3c]
class rdfs:Resource--><rect codeLine="3" fill="#FEFECE" filter="url(#f1lw40igochhsg)" height="48" id="rdfs:Resource" style="stroke:#A80036;stroke-width:1.5;" width="110" x="7" y="522"/><ellipse cx="22" cy="538" fill="#ADD1B2" rx="11" ry="11" style="stroke:#A80036;stroke-width:1.0;"/><path d="M24.7656,533.875 Q24.9219,533.6563 25.1094,533.5469 Q25.2969,533.4375 25.5156,533.4375 Q25.8906,533.4375 26.125,533.6953 Q26.3594,533.9531 26.3594,534.5625 L26.3594,536.0156 Q26.3594,536.625 26.125,536.8906 Q25.8906,537.1563 25.5156,537.1563 Q25.1719,537.1563 24.9688,536.9531 Q24.7656,536.7656 24.6563,536.25 Q24.6094,535.8906 24.4219,535.7031 Q24.0938,535.3281 23.4844,535.1094 Q22.875,534.8906 22.25,534.8906 Q21.4844,534.8906 20.8516,535.2188 Q20.2188,535.5469 19.7266,536.2969 Q19.2344,537.0469 19.2344,538.0781 L19.2344,539.1719 Q19.2344,540.4063 20.125,541.2266 Q21.0156,542.0469 22.6094,542.0469 Q23.5469,542.0469 24.2031,541.7969 Q24.5938,541.6406 25.0156,541.2031 Q25.2813,540.9375 25.4297,540.8594 Q25.5781,540.7813 25.7813,540.7813 Q26.1094,540.7813 26.3672,541.0391 Q26.625,541.2969 26.625,541.6406 Q26.625,541.9844 26.2813,542.3906 Q25.7813,542.9688 24.9844,543.2969 Q23.9063,543.75 22.6094,543.75 Q21.0938,543.75 19.8906,543.125 Q18.9063,542.625 18.2188,541.5547 Q17.5313,540.4844 17.5313,539.2031 L17.5313,538.0469 Q17.5313,536.7188 18.1484,535.5703 Q18.7656,534.4219 19.8594,533.8047 Q20.9531,533.1875 22.1875,533.1875 Q22.9219,533.1875 23.5703,533.3516 Q24.2188,533.5156 24.7656,533.875 Z " fill="#000000"/><text fill="#000000" font-family="sans-serif" font-size="12" lengthAdjust="spacing" textLength="78" x="36" y="542.9102">rdfs:Resource</text><line style="stroke:#A80036;stroke-width:1.5;" x1="8" x2="116" y1="554" y2="554"/><line style="stroke:#A80036;stroke-width:1.5;" x1="8" x2="116" y1="562" y2="562"/><!--MD5=[7ff8c3a815a6c33ff040567e25e6a4e5]
class dct:Standard--><rect codeLine="4" fill="#FEFECE" filter="url(#f1lw40igochhsg)" height="48" id="dct:Standard" style="stroke:#A80036;stroke-width:1.5;" width="101" x="219.5" y="130"/><ellipse cx="234.5" cy="146" fill="#ADD1B2" rx="11" ry="11" style="stroke:#A80036;stroke-width:1.0;"/><path d="M237.2656,141.875 Q237.4219,141.6563 237.6094,141.5469 Q237.7969,141.4375 238.0156,141.4375 Q238.3906,141.4375 238.625,141.6953 Q238.8594,141.9531 238.8594,142.5625 L238.8594,144.0156 Q238.8594,144.625 238.625,144.8906 Q238.3906,145.1563 238.0156,145.1563 Q237.6719,145.1563 237.4688,144.9531 Q237.2656,144.7656 237.1563,144.25 Q237.1094,143.8906 236.9219,143.7031 Q236.5938,143.3281 235.9844,143.1094 Q235.375,142.8906 234.75,142.8906 Q233.9844,142.8906 233.3516,143.2188 Q232.7188,143.5469 232.2266,144.2969 Q231.7344,145.0469 231.7344,146.0781 L231.7344,147.1719 Q231.7344,148.4063 232.625,149.2266 Q233.5156,150.0469 235.1094,150.0469 Q236.0469,150.0469 236.7031,149.7969 Q237.0938,149.6406 237.5156,149.2031 Q237.7813,148.9375 237.9297,148.8594 Q238.0781,148.7813 238.2813,148.7813 Q238.6094,148.7813 238.8672,149.0391 Q239.125,149.2969 239.125,149.6406 Q239.125,149.9844 238.7813,150.3906 Q238.2813,150.9688 237.4844,151.2969 Q236.4063,151.75 235.1094,151.75 Q233.5938,151.75 232.3906,151.125 Q231.4063,150.625 230.7188,149.5547 Q230.0313,148.4844 230.0313,147.2031 L230.0313,146.0469 Q230.0313,144.7188 230.6484,143.5703 Q231.2656,142.4219 232.3594,141.8047 Q233.4531,141.1875 234.6875,141.1875 Q235.4219,141.1875 236.0703,141.3516 Q236.7188,141.5156 237.2656,141.875 Z " fill="#000000"/><text fill="#000000" font-family="sans-serif" font-size="12" lengthAdjust="spacing" textLength="69" x="248.5" y="150.9102">dct:Standard</text><line style="stroke:#A80036;stroke-width:1.5;" x1="220.5" x2="319.5" y1="162" y2="162"/><line style="stroke:#A80036;stroke-width:1.5;" x1="220.5" x2="319.5" y1="170" y2="170"/><!--MD5=[98d9dc0e360e3d4480bcb3e62ce4b807]
class prof:Profile--><rect codeLine="5" fill="#FEFECE" filter="url(#f1lw40igochhsg)" height="48" id="prof:Profile" style="stroke:#A80036;stroke-width:1.5;" width="91" x="224.5" y="256"/><ellipse cx="239.5" cy="272" fill="#ADD1B2" rx="11" ry="11" style="stroke:#A80036;stroke-width:1.0;"/><path d="M242.2656,267.875 Q242.4219,267.6563 242.6094,267.5469 Q242.7969,267.4375 243.0156,267.4375 Q243.3906,267.4375 243.625,267.6953 Q243.8594,267.9531 243.8594,268.5625 L243.8594,270.0156 Q243.8594,270.625 243.625,270.8906 Q243.3906,271.1563 243.0156,271.1563 Q242.6719,271.1563 242.4688,270.9531 Q242.2656,270.7656 242.1563,270.25 Q242.1094,269.8906 241.9219,269.7031 Q241.5938,269.3281 240.9844,269.1094 Q240.375,268.8906 239.75,268.8906 Q238.9844,268.8906 238.3516,269.2188 Q237.7188,269.5469 237.2266,270.2969 Q236.7344,271.0469 236.7344,272.0781 L236.7344,273.1719 Q236.7344,274.4063 237.625,275.2266 Q238.5156,276.0469 240.1094,276.0469 Q241.0469,276.0469 241.7031,275.7969 Q242.0938,275.6406 242.5156,275.2031 Q242.7813,274.9375 242.9297,274.8594 Q243.0781,274.7813 243.2813,274.7813 Q243.6094,274.7813 243.8672,275.0391 Q244.125,275.2969 244.125,275.6406 Q244.125,275.9844 243.7813,276.3906 Q243.2813,276.9688 242.4844,277.2969 Q241.4063,277.75 240.1094,277.75 Q238.5938,277.75 237.3906,277.125 Q236.4063,276.625 235.7188,275.5547 Q235.0313,274.4844 235.0313,273.2031 L235.0313,272.0469 Q235.0313,270.7188 235.6484,269.5703 Q236.2656,268.4219 237.3594,267.8047 Q238.4531,267.1875 239.6875,267.1875 Q240.4219,267.1875 241.0703,267.3516 Q241.7188,267.5156 242.2656,267.875 Z " fill="#000000"/><text fill="#000000" font-family="sans-serif" font-size="12" lengthAdjust="spacing" textLength="59" x="253.5" y="276.9102">prof:Profile</text><line style="stroke:#A80036;stroke-width:1.5;" x1="225.5" x2="314.5" y1="288" y2="288"/><line style="stroke:#A80036;stroke-width:1.5;" x1="225.5" x2="314.5" y1="296" y2="296"/><!--MD5=[faa43be053ed295717d2b3e42260b484]
class dct:MediaTypeOrExtend--><rect codeLine="7" fill="#FEFECE" filter="url(#f1lw40igochhsg)" height="48" id="dct:MediaTypeOrExtend" style="stroke:#A80036;stroke-width:1.5;" width="160" x="346" y="522"/><ellipse cx="361" cy="538" fill="#ADD1B2" rx="11" ry="11" style="stroke:#A80036;stroke-width:1.0;"/><path d="M363.7656,533.875 Q363.9219,533.6563 364.1094,533.5469 Q364.2969,533.4375 364.5156,533.4375 Q364.8906,533.4375 365.125,533.6953 Q365.3594,533.9531 365.3594,534.5625 L365.3594,536.0156 Q365.3594,536.625 365.125,536.8906 Q364.8906,537.1563 364.5156,537.1563 Q364.1719,537.1563 363.9688,536.9531 Q363.7656,536.7656 363.6563,536.25 Q363.6094,535.8906 363.4219,535.7031 Q363.0938,535.3281 362.4844,535.1094 Q361.875,534.8906 361.25,534.8906 Q360.4844,534.8906 359.8516,535.2188 Q359.2188,535.5469 358.7266,536.2969 Q358.2344,537.0469 358.2344,538.0781 L358.2344,539.1719 Q358.2344,540.4063 359.125,541.2266 Q360.0156,542.0469 361.6094,542.0469 Q362.5469,542.0469 363.2031,541.7969 Q363.5938,541.6406 364.0156,541.2031 Q364.2813,540.9375 364.4297,540.8594 Q364.5781,540.7813 364.7813,540.7813 Q365.1094,540.7813 365.3672,541.0391 Q365.625,541.2969 365.625,541.6406 Q365.625,541.9844 365.2813,542.3906 Q364.7813,542.9688 363.9844,543.2969 Q362.9063,543.75 361.6094,543.75 Q360.0938,543.75 358.8906,543.125 Q357.9063,542.625 357.2188,541.5547 Q356.5313,540.4844 356.5313,539.2031 L356.5313,538.0469 Q356.5313,536.7188 357.1484,535.5703 Q357.7656,534.4219 358.8594,533.8047 Q359.9531,533.1875 361.1875,533.1875 Q361.9219,533.1875 362.5703,533.3516 Q363.2188,533.5156 363.7656,533.875 Z " fill="#000000"/><text fill="#000000" font-family="sans-serif" font-size="12" lengthAdjust="spacing" textLength="128" x="375" y="542.9102">dct:MediaTypeOrExtend</text><line style="stroke:#A80036;stroke-width:1.5;" x1="347" x2="505" y1="554" y2="554"/><line style="stroke:#A80036;stroke-width:1.5;" x1="347" x2="505" y1="562" y2="562"/><!--MD5=[b0df360c8369932153c1afb2d9e6e4b4]
class prof:ResourceRole--><rect codeLine="8" fill="#FEFECE" filter="url(#f1lw40igochhsg)" height="75.6719" id="prof:ResourceRole" style="stroke:#A80036;stroke-width:1.5;" width="136" x="167" y="508"/><ellipse cx="182" cy="524" fill="#EB937F" rx="11" ry="11" style="stroke:#A80036;stroke-width:1.0;"/><path d="M180.8594,524.7969 L180.8594,527.2969 L185.1875,527.2969 L185.1875,526.375 Q185.1875,525.7656 185.4297,525.5 Q185.6719,525.2344 186.0469,525.2344 Q186.4219,525.2344 186.6563,525.5 Q186.8906,525.7656 186.8906,526.375 L186.8906,529 L178.8906,529 Q178.2656,529 178.0078,528.7656 Q177.75,528.5313 177.75,528.1406 Q177.75,527.7656 178.0156,527.5313 Q178.2813,527.2969 178.8906,527.2969 L179.1563,527.2969 L179.1563,520.6406 L178.8906,520.6406 Q178.2656,520.6406 178.0078,520.4063 Q177.75,520.1719 177.75,519.7813 Q177.75,519.4063 178.0078,519.1719 Q178.2656,518.9375 178.8906,518.9375 L186.5156,518.9375 L186.5156,521.5313 Q186.5156,522.1406 186.2891,522.3984 Q186.0625,522.6563 185.6719,522.6563 Q185.2969,522.6563 185.0625,522.3984 Q184.8281,522.1406 184.8281,521.5313 L184.8281,520.6406 L180.8594,520.6406 L180.8594,523.0938 L182.3438,523.0938 Q182.3438,522.4375 182.4688,522.25 Q182.7344,521.8438 183.2031,521.8438 Q183.5781,521.8438 183.8125,522.1016 Q184.0469,522.3594 184.0469,522.9688 L184.0469,524.9375 Q184.0469,525.4844 183.9219,525.6719 Q183.6563,526.0625 183.2031,526.0625 Q182.7344,526.0625 182.4688,525.6563 Q182.3438,525.4688 182.3438,524.7969 L180.8594,524.7969 Z " fill="#000000"/><text fill="#000000" font-family="sans-serif" font-size="12" lengthAdjust="spacing" textLength="104" x="196" y="528.9102">prof:ResourceRole</text><line style="stroke:#A80036;stroke-width:1.5;" x1="168" x2="302" y1="540" y2="540"/><text fill="#000000" font-family="sans-serif" font-size="11" lengthAdjust="spacing" textLength="69" x="173" y="555.4189">role:constraint</text><text fill="#000000" font-family="sans-serif" font-size="11" lengthAdjust="spacing" textLength="75" x="173" y="569.2549">role:vocabulary</text><line style="stroke:#A80036;stroke-width:1.5;" x1="168" x2="302" y1="575.6719" y2="575.6719"/><!--MD5=[f071ecb23dbf121833784480fda18997]
class owl:Thing--><a href="http://www.w3.org/2002/07/owl#Thing" target="_top" title="http://www.w3.org/2002/07/owl#Thing" xlink:actuate="onRequest" xlink:href="http://www.w3.org/2002/07/owl#Thing" xlink:show="new" xlink:title="http://www.w3.org/2002/07/owl#Thing" xlink:type="simple"><rect codeLine="13" fill="#FEFECE" filter="url(#f1lw40igochhsg)" height="61.8359" id="owl:Thing" style="stroke:#A80036;stroke-width:1.5;" width="149" x="91.5" y="7"/><ellipse cx="135.75" cy="23" fill="#A9DCDF" rx="11" ry="11" style="stroke:#A80036;stroke-width:1.0;"/><path d="M137.9375,24.7656 L133.7969,24.7656 L133.375,25.7969 L133.7969,25.7969 Q134.4063,25.7969 134.6719,26.0313 Q134.9375,26.2656 134.9375,26.6563 Q134.9375,27.0313 134.6719,27.2656 Q134.4063,27.5 133.7969,27.5 L131.5,27.5 Q130.8906,27.5 130.6328,27.2656 Q130.375,27.0313 130.375,26.6406 Q130.375,26.2656 130.6484,26.0234 Q130.9219,25.7813 131.5469,25.7969 L134.2188,19.1406 L133.1094,19.1406 Q132.5,19.1406 132.2344,18.9063 Q131.9688,18.6719 131.9688,18.2813 Q131.9688,17.9063 132.2344,17.6719 Q132.5,17.4375 133.1094,17.4375 L136.7813,17.4375 L140.1719,25.7969 Q140.7656,25.7969 140.9531,25.9375 Q141.3438,26.2031 141.3438,26.6563 Q141.3438,27.0313 141.0859,27.2656 Q140.8281,27.5 140.2188,27.5 L137.9219,27.5 Q137.3125,27.5 137.0469,27.2656 Q136.7813,27.0313 136.7813,26.6406 Q136.7813,26.2656 137.0469,26.0313 Q137.3125,25.7969 137.9219,25.7969 L138.3438,25.7969 L137.9375,24.7656 Z M137.2188,23.0625 L135.8594,19.6875 L134.4844,23.0625 L137.2188,23.0625 Z " fill="#000000"/><text fill="#000000" font-family="sans-serif" font-size="12" font-style="italic" lengthAdjust="spacing" textLength="52" x="156.25" y="27.9102">owl:Thing</text><line style="stroke:#A80036;stroke-width:1.5;" x1="92.5" x2="239.5" y1="39" y2="39"/></a><a href="http://www.w3.org/2000/01/rdf-schema#comment" target="_top" title="http://www.w3.org/2000/01/rdf-schema#comment" xlink:actuate="onRequest" xlink:href="http://www.w3.org/2000/01/rdf-schema#comment" xlink:show="new" xlink:title="http://www.w3.org/2000/01/rdf-schema#comment" xlink:type="simple"><text fill="#0000FF" font-family="sans-serif" font-size="11" lengthAdjust="spacing" text-decoration="underline" textLength="66" x="97.5" y="54.4189">rdfs:comment</text></a><text fill="#000000" font-family="sans-serif" font-size="11" lengthAdjust="spacing" textLength="62" x="172.5" y="54.4189">: "xsd:string"</text><line style="stroke:#A80036;stroke-width:1.5;" x1="92.5" x2="239.5" y1="60.8359" y2="60.8359"/><!--MD5=[36a59dd37a9a91fbcf73e87693c2fb24]
reverse link owl:Thing to dct:Standard--><path codeLine="17" d="M207.3,84.28 C221.55,99.89 236.92,116.74 248.88,129.84 " fill="none" id="owl:Thing-backto-dct:Standard" style="stroke:#A80036;stroke-width:1.0;"/><polygon fill="none" points="201.9,88.74,193.6,69.25,212.25,79.31,201.9,88.74" style="stroke:#A80036;stroke-width:1.0;"/><!--MD5=[00a0d86fea4fd4e45a381211b3e38991]
reverse link dct:Standard to prof:Profile--><path codeLine="18" d="M330.76,191.1 C340.33,201.39 345.27,213.28 339,226 C333.12,237.92 323.13,247.91 312.55,255.89 " fill="none" id="dct:Standard-backto-prof:Profile" style="stroke:#A80036;stroke-width:1.0;"/><polygon fill="none" points="326.2,196.42,315.45,178.16,335.24,185.73,326.2,196.42" style="stroke:#A80036;stroke-width:1.0;"/><!--MD5=[e471a5bd139ea960b4e62ccfada9296c]
link prof:Profile to dct:Standard--><path codeLine="25" d="M253.47,255.86 C248.07,246.96 242.75,236.43 240,226 C236.11,211.25 241.64,195.56 248.96,182.68 " fill="none" id="prof:Profile-to-dct:Standard" style="stroke:#A80036;stroke-width:1.0;"/><polygon fill="#A80036" points="251.73,178.08,243.6779,183.7513,249.1638,182.3712,250.5439,187.8572,251.73,178.08" style="stroke:#A80036;stroke-width:1.0;"/><text fill="#000000" font-family="sans-serif" font-size="13" lengthAdjust="spacing" textLength="89" x="241" y="222.4951">dct:conformsTo</text><!--MD5=[7cb126ce4405e5a26f78039a3be64388]
reverse link owl:Thing to rdfs:Resource--><path codeLine="19" d="M73.5,73.87 C42.66,91.9 16,117.7 16,153 C16,153 16,153 16,407 C16,449.17 35.58,495.05 49.19,521.85 " fill="none" id="owl:Thing-backto-rdfs:Resource" style="stroke:#A80036;stroke-width:1.0;"/><polygon fill="none" points="70.49,67.54,91.44,64.39,77.03,79.92,70.49,67.54" style="stroke:#A80036;stroke-width:1.0;"/><!--MD5=[218be0136f4fe84bb1a3155deec73446]
reverse link owl:Thing to prof:ResourceDescriptor--><path codeLine="20" d="M167.79,89.5 C171.09,143.97 180.44,232.5 207,304 C217.72,332.87 237.3,362.35 251.8,381.94 " fill="none" id="owl:Thing-backto-prof:ResourceDescriptor" style="stroke:#A80036;stroke-width:1.0;"/><polygon fill="none" points="160.79,89.73,166.76,69.4,174.77,89.01,160.79,89.73" style="stroke:#A80036;stroke-width:1.0;"/><!--MD5=[68abb5bdb75cccacb8e16bb65f21024e]
reverse link owl:Thing to prof:ResourceRole--><path codeLine="21" d="M116.53,84.13 C100.61,103.43 87,127.42 87,153 C87,153 87,153 87,407 C87,454.25 127.85,489.94 166.63,513.18 " fill="none" id="owl:Thing-backto-prof:ResourceRole" style="stroke:#A80036;stroke-width:1.0;"/><polygon fill="none" points="111.57,79.17,130.2,69.08,121.93,88.59,111.57,79.17" style="stroke:#A80036;stroke-width:1.0;"/><!--MD5=[be785a341848f6279022a105faeb2569]
reverse link owl:Thing to dct:MediaTypeOrExtend--><path codeLine="22" d="M260.33,55.54 C349.91,74.01 471,107.41 471,153 C471,153 471,153 471,407 C471,449.08 451.85,494.99 438.54,521.82 " fill="none" id="owl:Thing-backto-dct:MediaTypeOrExtend" style="stroke:#A80036;stroke-width:1.0;"/><polygon fill="none" points="258.86,62.39,240.61,51.61,261.59,48.66,258.86,62.39" style="stroke:#A80036;stroke-width:1.0;"/><!--MD5=[5349ab306e7468884c7eda5aef427668]
link prof:Profile to prof:ResourceDescriptor--><path codeLine="24" d="M270,304.03 C270,324.52 270,354.56 270,376.55 " fill="none" id="prof:Profile-to-prof:ResourceDescriptor" style="stroke:#A80036;stroke-width:1.0;"/><polygon fill="#A80036" points="270,381.67,274,372.67,270,376.67,266,372.67,270,381.67" style="stroke:#A80036;stroke-width:1.0;"/><text fill="#000000" font-family="sans-serif" font-size="13" lengthAdjust="spacing" textLength="101" x="271" y="348.4951">prof:hasResource</text><!--MD5=[fbaf52edbd2de199c96253634074dfa5]
link prof:ResourceDescriptor to dct:MediaTypeOrExtend--><path codeLine="26" d="M300.5,430.16 C312.12,439.23 325.36,449.88 337,460 C358.43,478.64 381.61,500.84 398.93,517.88 " fill="none" id="prof:ResourceDescriptor-to-dct:MediaTypeOrExtend" style="stroke:#A80036;stroke-width:1.0;"/><polygon fill="#A80036" points="402.76,521.66,399.1688,512.4892,399.2031,518.146,393.5464,518.1802,402.76,521.66" style="stroke:#A80036;stroke-width:1.0;"/><text fill="#000000" font-family="sans-serif" font-size="13" lengthAdjust="spacing" textLength="58" x="358" y="474.4951">dct:format</text><!--MD5=[f906da954b64141d65c26b675197e854]
link prof:ResourceDescriptor to prof:ResourceRole--><path codeLine="27" d="M264.14,430.1 C259.13,449.87 251.78,478.84 245.72,502.75 " fill="none" id="prof:ResourceDescriptor-to-prof:ResourceRole" style="stroke:#A80036;stroke-width:1.0;"/><polygon fill="#A80036" points="244.44,507.77,250.5303,500.0299,245.6695,502.9235,242.7759,498.0627,244.44,507.77" style="stroke:#A80036;stroke-width:1.0;"/><text fill="#000000" font-family="sans-serif" font-size="13" lengthAdjust="spacing" textLength="72" x="256" y="474.4951">prof:hasRole</text><!--MD5=[6fea7dbaffca37d8547cc16f6b4dabd9]
link prof:ResourceDescriptor to rdfs:Resource--><path codeLine="28" d="M210.81,430.08 C192.29,438.39 172.21,448.57 155,460 C129.93,476.65 104.94,499.96 87.19,517.95 " fill="none" id="prof:ResourceDescriptor-to-rdfs:Resource" style="stroke:#A80036;stroke-width:1.0;"/><polygon fill="#A80036" points="83.29,521.94,92.4462,518.3118,86.7896,518.3689,86.7325,512.7124,83.29,521.94" style="stroke:#A80036;stroke-width:1.0;"/><text fill="#000000" font-family="sans-serif" font-size="13" lengthAdjust="spacing" textLength="87" x="156" y="474.4951">prof:hasArtifact</text><!--MD5=[a9bebd256903461d2673ad8e79b18a4d]
@startuml profile

class "prof:ResourceDescriptor"
class "rdfs:Resource"
class "dct:Standard"
class "prof:Profile"

class "dct:MediaTypeOrExtend"
enum "prof:ResourceRole" {
    role:constraint
    role:vocabulary
}

abstract class "owl:Thing" [[http://www.w3.org/2002/07/owl#Thing]]{ 
 [[http://www.w3.org/2000/01/rdf-schema#comment rdfs:comment ]]  : "xsd:string" 
}

"owl:Thing"<|- - "dct:Standard"
"dct:Standard"<|- - "prof:Profile"
"owl:Thing"<|- - "rdfs:Resource"
"owl:Thing"<|- - "prof:ResourceDescriptor"
"owl:Thing"<|- - "prof:ResourceRole"
"owl:Thing"<|- - "dct:MediaTypeOrExtend"

"prof:Profile" - ->  "prof:ResourceDescriptor" : "prof:hasResource"
"prof:Profile" - ->  "dct:Standard" : "dct:conformsTo"
"prof:ResourceDescriptor" - ->  "dct:MediaTypeOrExtend" : "dct:format"
"prof:ResourceDescriptor" - ->  "prof:ResourceRole" : "prof:hasRole"
"prof:ResourceDescriptor" - ->  "rdfs:Resource" : "prof:hasArtifact"


@enduml

PlantUML version 1.2022.0(Tue Jan 11 17:16:42 CET 2022)
(GPL source distribution)
Java Runtime: Java(TM) SE Runtime Environment
JVM: Java HotSpot(TM) 64-Bit Server VM
Default Encoding: Cp1252
Language: nl
Country: NL
--></g></svg>