<?xml version="1.0" encoding="UTF-8" standalone="no"?><svg xmlns="http://www.w3.org/2000/svg" xmlns:xlink="http://www.w3.org/1999/xlink" contentScriptType="application/ecmascript" contentStyleType="text/css" height="614px" preserveAspectRatio="none" style="width:1183px;height:614px;background:#FFFFFF;" version="1.1" viewBox="0 0 1183 614" width="1183px" zoomAndPan="magnify"><defs><filter height="300%" id="f8q2mn7ig0l8k" width="300%" x="-1" y="-1"><feGaussianBlur result="blurOut" stdDeviation="2.0"/><feColorMatrix in="blurOut" result="blurOut2" type="matrix" values="0 0 0 0 0 0 0 0 0 0 0 0 0 0 0 0 0 0 .4 0"/><feOffset dx="4.0" dy="4.0" in="blurOut2" result="blurOut3"/><feBlend in="SourceGraphic" in2="blurOut3" mode="normal"/></filter></defs><g><!--MD5=[f5ce388bc7d1e648277699e93003c1c4]
class owl:Class--><a href="http://www.w3.org/2000/01/rdf-schema#Class" target="_top" title="http://www.w3.org/2000/01/rdf-schema#Class" xlink:actuate="onRequest" xlink:href="http://www.w3.org/2000/01/rdf-schema#Class" xlink:show="new" xlink:title="http://www.w3.org/2000/01/rdf-schema#Class" xlink:type="simple"><rect codeLine="2" fill="#FEFECE" filter="url(#f8q2mn7ig0l8k)" height="48" id="owl:Class" style="stroke:#A80036;stroke-width:1.5;" width="87" x="147.98" y="426"/><ellipse cx="162.98" cy="442" fill="#ADD1B2" rx="11" ry="11" style="stroke:#A80036;stroke-width:1.0;"/><path d="M165.7456,437.875 Q165.9019,437.6563 166.0894,437.5469 Q166.2769,437.4375 166.4956,437.4375 Q166.8706,437.4375 167.105,437.6953 Q167.3394,437.9531 167.3394,438.5625 L167.3394,440.0156 Q167.3394,440.625 167.105,440.8906 Q166.8706,441.1563 166.4956,441.1563 Q166.1519,441.1563 165.9488,440.9531 Q165.7456,440.7656 165.6363,440.25 Q165.5894,439.8906 165.4019,439.7031 Q165.0738,439.3281 164.4644,439.1094 Q163.855,438.8906 163.23,438.8906 Q162.4644,438.8906 161.8316,439.2188 Q161.1988,439.5469 160.7066,440.2969 Q160.2144,441.0469 160.2144,442.0781 L160.2144,443.1719 Q160.2144,444.4063 161.105,445.2266 Q161.9956,446.0469 163.5894,446.0469 Q164.5269,446.0469 165.1831,445.7969 Q165.5738,445.6406 165.9956,445.2031 Q166.2613,444.9375 166.4097,444.8594 Q166.5581,444.7813 166.7613,444.7813 Q167.0894,444.7813 167.3472,445.0391 Q167.605,445.2969 167.605,445.6406 Q167.605,445.9844 167.2613,446.3906 Q166.7613,446.9688 165.9644,447.2969 Q164.8863,447.75 163.5894,447.75 Q162.0738,447.75 160.8706,447.125 Q159.8863,446.625 159.1988,445.5547 Q158.5113,444.4844 158.5113,443.2031 L158.5113,442.0469 Q158.5113,440.7188 159.1284,439.5703 Q159.7456,438.4219 160.8394,437.8047 Q161.9331,437.1875 163.1675,437.1875 Q163.9019,437.1875 164.5503,437.3516 Q165.1988,437.5156 165.7456,437.875 Z " fill="#000000"/><text fill="#000000" font-family="sans-serif" font-size="12" lengthAdjust="spacing" textLength="55" x="176.98" y="446.9102">owl:Class</text><line style="stroke:#A80036;stroke-width:1.5;" x1="148.98" x2="233.98" y1="458" y2="458"/><line style="stroke:#A80036;stroke-width:1.5;" x1="148.98" x2="233.98" y1="466" y2="466"/></a><!--MD5=[26d97e0ce71724a026b94e990c41e6be]
class owl:DatatypeProperty--><a href="http://www.w3.org/2002/07/owl#DatatypeProperty" target="_top" title="http://www.w3.org/2002/07/owl#DatatypeProperty" xlink:actuate="onRequest" xlink:href="http://www.w3.org/2002/07/owl#DatatypeProperty" xlink:show="new" xlink:title="http://www.w3.org/2002/07/owl#DatatypeProperty" xlink:type="simple"><rect codeLine="3" fill="#FEFECE" filter="url(#f8q2mn7ig0l8k)" height="48" id="owl:DatatypeProperty" style="stroke:#A80036;stroke-width:1.5;" width="147" x="506.98" y="300"/><ellipse cx="521.98" cy="316" fill="#ADD1B2" rx="11" ry="11" style="stroke:#A80036;stroke-width:1.0;"/><path d="M524.7456,311.875 Q524.9019,311.6563 525.0894,311.5469 Q525.2769,311.4375 525.4956,311.4375 Q525.8706,311.4375 526.105,311.6953 Q526.3394,311.9531 526.3394,312.5625 L526.3394,314.0156 Q526.3394,314.625 526.105,314.8906 Q525.8706,315.1563 525.4956,315.1563 Q525.1519,315.1563 524.9488,314.9531 Q524.7456,314.7656 524.6363,314.25 Q524.5894,313.8906 524.4019,313.7031 Q524.0738,313.3281 523.4644,313.1094 Q522.855,312.8906 522.23,312.8906 Q521.4644,312.8906 520.8316,313.2188 Q520.1988,313.5469 519.7066,314.2969 Q519.2144,315.0469 519.2144,316.0781 L519.2144,317.1719 Q519.2144,318.4063 520.105,319.2266 Q520.9956,320.0469 522.5894,320.0469 Q523.5269,320.0469 524.1831,319.7969 Q524.5738,319.6406 524.9956,319.2031 Q525.2613,318.9375 525.4097,318.8594 Q525.5581,318.7813 525.7613,318.7813 Q526.0894,318.7813 526.3472,319.0391 Q526.605,319.2969 526.605,319.6406 Q526.605,319.9844 526.2613,320.3906 Q525.7613,320.9688 524.9644,321.2969 Q523.8863,321.75 522.5894,321.75 Q521.0738,321.75 519.8706,321.125 Q518.8863,320.625 518.1988,319.5547 Q517.5113,318.4844 517.5113,317.2031 L517.5113,316.0469 Q517.5113,314.7188 518.1284,313.5703 Q518.7456,312.4219 519.8394,311.8047 Q520.9331,311.1875 522.1675,311.1875 Q522.9019,311.1875 523.5503,311.3516 Q524.1988,311.5156 524.7456,311.875 Z " fill="#000000"/><text fill="#000000" font-family="sans-serif" font-size="12" lengthAdjust="spacing" textLength="115" x="535.98" y="320.9102">owl:DatatypeProperty</text><line style="stroke:#A80036;stroke-width:1.5;" x1="507.98" x2="652.98" y1="332" y2="332"/><line style="stroke:#A80036;stroke-width:1.5;" x1="507.98" x2="652.98" y1="340" y2="340"/></a><!--MD5=[6be91a87ff57af43446cece8d03445bb]
class owl:ObjectProperty--><a href="http://www.w3.org/2002/07/owl#ObjectProperty" target="_top" title="http://www.w3.org/2002/07/owl#ObjectProperty" xlink:actuate="onRequest" xlink:href="http://www.w3.org/2002/07/owl#ObjectProperty" xlink:show="new" xlink:title="http://www.w3.org/2002/07/owl#ObjectProperty" xlink:type="simple"><rect codeLine="4" fill="#FEFECE" filter="url(#f8q2mn7ig0l8k)" height="48" id="owl:ObjectProperty" style="stroke:#A80036;stroke-width:1.5;" width="134" x="87.48" y="300"/><ellipse cx="102.48" cy="316" fill="#ADD1B2" rx="11" ry="11" style="stroke:#A80036;stroke-width:1.0;"/><path d="M105.2456,311.875 Q105.4019,311.6563 105.5894,311.5469 Q105.7769,311.4375 105.9956,311.4375 Q106.3706,311.4375 106.605,311.6953 Q106.8394,311.9531 106.8394,312.5625 L106.8394,314.0156 Q106.8394,314.625 106.605,314.8906 Q106.3706,315.1563 105.9956,315.1563 Q105.6519,315.1563 105.4488,314.9531 Q105.2456,314.7656 105.1363,314.25 Q105.0894,313.8906 104.9019,313.7031 Q104.5738,313.3281 103.9644,313.1094 Q103.355,312.8906 102.73,312.8906 Q101.9644,312.8906 101.3316,313.2188 Q100.6988,313.5469 100.2066,314.2969 Q99.7144,315.0469 99.7144,316.0781 L99.7144,317.1719 Q99.7144,318.4063 100.605,319.2266 Q101.4956,320.0469 103.0894,320.0469 Q104.0269,320.0469 104.6831,319.7969 Q105.0738,319.6406 105.4956,319.2031 Q105.7613,318.9375 105.9097,318.8594 Q106.0581,318.7813 106.2613,318.7813 Q106.5894,318.7813 106.8472,319.0391 Q107.105,319.2969 107.105,319.6406 Q107.105,319.9844 106.7613,320.3906 Q106.2613,320.9688 105.4644,321.2969 Q104.3863,321.75 103.0894,321.75 Q101.5738,321.75 100.3706,321.125 Q99.3863,320.625 98.6988,319.5547 Q98.0113,318.4844 98.0113,317.2031 L98.0113,316.0469 Q98.0113,314.7188 98.6284,313.5703 Q99.2456,312.4219 100.3394,311.8047 Q101.4331,311.1875 102.6675,311.1875 Q103.4019,311.1875 104.0503,311.3516 Q104.6988,311.5156 105.2456,311.875 Z " fill="#000000"/><text fill="#000000" font-family="sans-serif" font-size="12" lengthAdjust="spacing" textLength="102" x="116.48" y="320.9102">owl:ObjectProperty</text><line style="stroke:#A80036;stroke-width:1.5;" x1="88.48" x2="220.48" y1="332" y2="332"/><line style="stroke:#A80036;stroke-width:1.5;" x1="88.48" x2="220.48" y1="340" y2="340"/></a><!--MD5=[f5d6fba28c9acdd96eb01d07ddcb0e48]
class rdf:Property--><a href="http://www.w3.org/1999/02/22-rdf-syntax-ns#Property" target="_top" title="http://www.w3.org/1999/02/22-rdf-syntax-ns#Property" xlink:actuate="onRequest" xlink:href="http://www.w3.org/1999/02/22-rdf-syntax-ns#Property" xlink:show="new" xlink:title="http://www.w3.org/1999/02/22-rdf-syntax-ns#Property" xlink:type="simple"><rect codeLine="5" fill="#FEFECE" filter="url(#f8q2mn7ig0l8k)" height="48" id="rdf:Property" style="stroke:#A80036;stroke-width:1.5;" width="95" x="354.98" y="144"/><ellipse cx="369.98" cy="160" fill="#A9DCDF" rx="11" ry="11" style="stroke:#A80036;stroke-width:1.0;"/><path d="M372.1675,161.7656 L368.0269,161.7656 L367.605,162.7969 L368.0269,162.7969 Q368.6363,162.7969 368.9019,163.0313 Q369.1675,163.2656 369.1675,163.6563 Q369.1675,164.0313 368.9019,164.2656 Q368.6363,164.5 368.0269,164.5 L365.73,164.5 Q365.1206,164.5 364.8628,164.2656 Q364.605,164.0313 364.605,163.6406 Q364.605,163.2656 364.8784,163.0234 Q365.1519,162.7813 365.7769,162.7969 L368.4488,156.1406 L367.3394,156.1406 Q366.73,156.1406 366.4644,155.9063 Q366.1988,155.6719 366.1988,155.2813 Q366.1988,154.9063 366.4644,154.6719 Q366.73,154.4375 367.3394,154.4375 L371.0113,154.4375 L374.4019,162.7969 Q374.9956,162.7969 375.1831,162.9375 Q375.5738,163.2031 375.5738,163.6563 Q375.5738,164.0313 375.3159,164.2656 Q375.0581,164.5 374.4488,164.5 L372.1519,164.5 Q371.5425,164.5 371.2769,164.2656 Q371.0113,164.0313 371.0113,163.6406 Q371.0113,163.2656 371.2769,163.0313 Q371.5425,162.7969 372.1519,162.7969 L372.5738,162.7969 L372.1675,161.7656 Z M371.4488,160.0625 L370.0894,156.6875 L368.7144,160.0625 L371.4488,160.0625 Z " fill="#000000"/><text fill="#000000" font-family="sans-serif" font-size="12" font-style="italic" lengthAdjust="spacing" textLength="63" x="383.98" y="164.9102">rdf:Property</text><line style="stroke:#A80036;stroke-width:1.5;" x1="355.98" x2="448.98" y1="176" y2="176"/><line style="stroke:#A80036;stroke-width:1.5;" x1="355.98" x2="448.98" y1="184" y2="184"/></a><!--MD5=[343ed68f36560b8702214b37b3e3f531]
class rdfs:Datatype--><a href="http://www.w3.org/2000/01/rdf-schema#Datatype" target="_top" title="http://www.w3.org/2000/01/rdf-schema#Datatype" xlink:actuate="onRequest" xlink:href="http://www.w3.org/2000/01/rdf-schema#Datatype" xlink:show="new" xlink:title="http://www.w3.org/2000/01/rdf-schema#Datatype" xlink:type="simple"><rect codeLine="6" fill="#FEFECE" filter="url(#f8q2mn7ig0l8k)" height="48" id="rdfs:Datatype" style="stroke:#A80036;stroke-width:1.5;" width="104" x="669.48" y="426"/><ellipse cx="684.48" cy="442" fill="#ADD1B2" rx="11" ry="11" style="stroke:#A80036;stroke-width:1.0;"/><path d="M687.2456,437.875 Q687.4019,437.6563 687.5894,437.5469 Q687.7769,437.4375 687.9956,437.4375 Q688.3706,437.4375 688.605,437.6953 Q688.8394,437.9531 688.8394,438.5625 L688.8394,440.0156 Q688.8394,440.625 688.605,440.8906 Q688.3706,441.1563 687.9956,441.1563 Q687.6519,441.1563 687.4488,440.9531 Q687.2456,440.7656 687.1363,440.25 Q687.0894,439.8906 686.9019,439.7031 Q686.5738,439.3281 685.9644,439.1094 Q685.355,438.8906 684.73,438.8906 Q683.9644,438.8906 683.3316,439.2188 Q682.6988,439.5469 682.2066,440.2969 Q681.7144,441.0469 681.7144,442.0781 L681.7144,443.1719 Q681.7144,444.4063 682.605,445.2266 Q683.4956,446.0469 685.0894,446.0469 Q686.0269,446.0469 686.6831,445.7969 Q687.0738,445.6406 687.4956,445.2031 Q687.7613,444.9375 687.9097,444.8594 Q688.0581,444.7813 688.2613,444.7813 Q688.5894,444.7813 688.8472,445.0391 Q689.105,445.2969 689.105,445.6406 Q689.105,445.9844 688.7613,446.3906 Q688.2613,446.9688 687.4644,447.2969 Q686.3863,447.75 685.0894,447.75 Q683.5738,447.75 682.3706,447.125 Q681.3863,446.625 680.6988,445.5547 Q680.0113,444.4844 680.0113,443.2031 L680.0113,442.0469 Q680.0113,440.7188 680.6284,439.5703 Q681.2456,438.4219 682.3394,437.8047 Q683.4331,437.1875 684.6675,437.1875 Q685.4019,437.1875 686.0503,437.3516 Q686.6988,437.5156 687.2456,437.875 Z " fill="#000000"/><text fill="#000000" font-family="sans-serif" font-size="12" lengthAdjust="spacing" textLength="72" x="698.48" y="446.9102">rdfs:Datatype</text><line style="stroke:#A80036;stroke-width:1.5;" x1="670.48" x2="772.48" y1="458" y2="458"/><line style="stroke:#A80036;stroke-width:1.5;" x1="670.48" x2="772.48" y1="466" y2="466"/></a><!--MD5=[31591eb83966fda816a78a490949f972]
class owl:NamedIndividual--><a href="http://www.w3.org/2002/07/owl#NamedIndividual" target="_top" title="http://www.w3.org/2002/07/owl#NamedIndividual" xlink:actuate="onRequest" xlink:href="http://www.w3.org/2002/07/owl#NamedIndividual" xlink:show="new" xlink:title="http://www.w3.org/2002/07/owl#NamedIndividual" xlink:type="simple"><rect codeLine="7" fill="#FEFECE" filter="url(#f8q2mn7ig0l8k)" height="48" id="owl:NamedIndividual" style="stroke:#A80036;stroke-width:1.5;" width="147" x="801.98" y="222"/><ellipse cx="816.98" cy="238" fill="#ADD1B2" rx="11" ry="11" style="stroke:#A80036;stroke-width:1.0;"/><path d="M819.7456,233.875 Q819.9019,233.6563 820.0894,233.5469 Q820.2769,233.4375 820.4956,233.4375 Q820.8706,233.4375 821.105,233.6953 Q821.3394,233.9531 821.3394,234.5625 L821.3394,236.0156 Q821.3394,236.625 821.105,236.8906 Q820.8706,237.1563 820.4956,237.1563 Q820.1519,237.1563 819.9488,236.9531 Q819.7456,236.7656 819.6363,236.25 Q819.5894,235.8906 819.4019,235.7031 Q819.0738,235.3281 818.4644,235.1094 Q817.855,234.8906 817.23,234.8906 Q816.4644,234.8906 815.8316,235.2188 Q815.1988,235.5469 814.7066,236.2969 Q814.2144,237.0469 814.2144,238.0781 L814.2144,239.1719 Q814.2144,240.4063 815.105,241.2266 Q815.9956,242.0469 817.5894,242.0469 Q818.5269,242.0469 819.1831,241.7969 Q819.5738,241.6406 819.9956,241.2031 Q820.2613,240.9375 820.4097,240.8594 Q820.5581,240.7813 820.7613,240.7813 Q821.0894,240.7813 821.3472,241.0391 Q821.605,241.2969 821.605,241.6406 Q821.605,241.9844 821.2613,242.3906 Q820.7613,242.9688 819.9644,243.2969 Q818.8863,243.75 817.5894,243.75 Q816.0738,243.75 814.8706,243.125 Q813.8863,242.625 813.1988,241.5547 Q812.5113,240.4844 812.5113,239.2031 L812.5113,238.0469 Q812.5113,236.7188 813.1284,235.5703 Q813.7456,234.4219 814.8394,233.8047 Q815.9331,233.1875 817.1675,233.1875 Q817.9019,233.1875 818.5503,233.3516 Q819.1988,233.5156 819.7456,233.875 Z " fill="#000000"/><text fill="#000000" font-family="sans-serif" font-size="12" lengthAdjust="spacing" textLength="115" x="830.98" y="242.9102">owl:NamedIndividual</text><line style="stroke:#A80036;stroke-width:1.5;" x1="802.98" x2="947.98" y1="254" y2="254"/><line style="stroke:#A80036;stroke-width:1.5;" x1="802.98" x2="947.98" y1="262" y2="262"/></a><!--MD5=[f071ecb23dbf121833784480fda18997]
class owl:Thing--><a href="http://www.w3.org/2002/07/owl#Thing" target="_top" title="http://www.w3.org/2002/07/owl#Thing" xlink:actuate="onRequest" xlink:href="http://www.w3.org/2002/07/owl#Thing" xlink:show="new" xlink:title="http://www.w3.org/2002/07/owl#Thing" xlink:type="simple"><rect codeLine="8" fill="#FEFECE" filter="url(#f8q2mn7ig0l8k)" height="75.6719" id="owl:Thing" style="stroke:#A80036;stroke-width:1.5;" width="149" x="632.98" y="7"/><ellipse cx="677.23" cy="23" fill="#A9DCDF" rx="11" ry="11" style="stroke:#A80036;stroke-width:1.0;"/><path d="M679.4175,24.7656 L675.2769,24.7656 L674.855,25.7969 L675.2769,25.7969 Q675.8863,25.7969 676.1519,26.0313 Q676.4175,26.2656 676.4175,26.6563 Q676.4175,27.0313 676.1519,27.2656 Q675.8863,27.5 675.2769,27.5 L672.98,27.5 Q672.3706,27.5 672.1128,27.2656 Q671.855,27.0313 671.855,26.6406 Q671.855,26.2656 672.1284,26.0234 Q672.4019,25.7813 673.0269,25.7969 L675.6988,19.1406 L674.5894,19.1406 Q673.98,19.1406 673.7144,18.9063 Q673.4488,18.6719 673.4488,18.2813 Q673.4488,17.9063 673.7144,17.6719 Q673.98,17.4375 674.5894,17.4375 L678.2613,17.4375 L681.6519,25.7969 Q682.2456,25.7969 682.4331,25.9375 Q682.8238,26.2031 682.8238,26.6563 Q682.8238,27.0313 682.5659,27.2656 Q682.3081,27.5 681.6988,27.5 L679.4019,27.5 Q678.7925,27.5 678.5269,27.2656 Q678.2613,27.0313 678.2613,26.6406 Q678.2613,26.2656 678.5269,26.0313 Q678.7925,25.7969 679.4019,25.7969 L679.8238,25.7969 L679.4175,24.7656 Z M678.6988,23.0625 L677.3394,19.6875 L675.9644,23.0625 L678.6988,23.0625 Z " fill="#000000"/><text fill="#000000" font-family="sans-serif" font-size="12" font-style="italic" lengthAdjust="spacing" textLength="52" x="697.73" y="27.9102">owl:Thing</text><line style="stroke:#A80036;stroke-width:1.5;" x1="633.98" x2="780.98" y1="39" y2="39"/></a><a href="http://www.w3.org/2000/01/rdf-schema#label" target="_top" title="http://www.w3.org/2000/01/rdf-schema#label" xlink:actuate="onRequest" xlink:href="http://www.w3.org/2000/01/rdf-schema#label" xlink:show="new" xlink:title="http://www.w3.org/2000/01/rdf-schema#label" xlink:type="simple"><text fill="#0000FF" font-family="sans-serif" font-size="11" lengthAdjust="spacing" text-decoration="underline" textLength="45" x="638.98" y="54.4189">rdfs:label</text></a><text fill="#000000" font-family="sans-serif" font-size="11" lengthAdjust="spacing" textLength="54" x="686.98" y="54.4189">: xsd:string</text><a href="http://www.w3.org/2000/01/rdf-schema#comment" target="_top" title="http://www.w3.org/2000/01/rdf-schema#comment" xlink:actuate="onRequest" xlink:href="http://www.w3.org/2000/01/rdf-schema#comment" xlink:show="new" xlink:title="http://www.w3.org/2000/01/rdf-schema#comment" xlink:type="simple"><text fill="#0000FF" font-family="sans-serif" font-size="11" lengthAdjust="spacing" text-decoration="underline" textLength="66" x="638.98" y="68.2549">rdfs:comment</text></a><text fill="#000000" font-family="sans-serif" font-size="11" lengthAdjust="spacing" textLength="62" x="713.98" y="68.2549">: "xsd:string"</text><line style="stroke:#A80036;stroke-width:1.5;" x1="633.98" x2="780.98" y1="74.6719" y2="74.6719"/><!--MD5=[e26081150a54feee97befd454a48c707]
class skos:Concept--><rect fill="#FEFECE" filter="url(#f8q2mn7ig0l8k)" height="48" id="skos:Concept" style="stroke:#A80036;stroke-width:1.5;" width="108" x="137.48" y="552"/><ellipse cx="152.48" cy="568" fill="#ADD1B2" rx="11" ry="11" style="stroke:#A80036;stroke-width:1.0;"/><path d="M155.2456,563.875 Q155.4019,563.6563 155.5894,563.5469 Q155.7769,563.4375 155.9956,563.4375 Q156.3706,563.4375 156.605,563.6953 Q156.8394,563.9531 156.8394,564.5625 L156.8394,566.0156 Q156.8394,566.625 156.605,566.8906 Q156.3706,567.1563 155.9956,567.1563 Q155.6519,567.1563 155.4488,566.9531 Q155.2456,566.7656 155.1363,566.25 Q155.0894,565.8906 154.9019,565.7031 Q154.5738,565.3281 153.9644,565.1094 Q153.355,564.8906 152.73,564.8906 Q151.9644,564.8906 151.3316,565.2188 Q150.6988,565.5469 150.2066,566.2969 Q149.7144,567.0469 149.7144,568.0781 L149.7144,569.1719 Q149.7144,570.4063 150.605,571.2266 Q151.4956,572.0469 153.0894,572.0469 Q154.0269,572.0469 154.6831,571.7969 Q155.0738,571.6406 155.4956,571.2031 Q155.7613,570.9375 155.9097,570.8594 Q156.0581,570.7813 156.2613,570.7813 Q156.5894,570.7813 156.8472,571.0391 Q157.105,571.2969 157.105,571.6406 Q157.105,571.9844 156.7613,572.3906 Q156.2613,572.9688 155.4644,573.2969 Q154.3863,573.75 153.0894,573.75 Q151.5738,573.75 150.3706,573.125 Q149.3863,572.625 148.6988,571.5547 Q148.0113,570.4844 148.0113,569.2031 L148.0113,568.0469 Q148.0113,566.7188 148.6284,565.5703 Q149.2456,564.4219 150.3394,563.8047 Q151.4331,563.1875 152.6675,563.1875 Q153.4019,563.1875 154.0503,563.3516 Q154.6988,563.5156 155.2456,563.875 Z " fill="#000000"/><text fill="#000000" font-family="sans-serif" font-size="12" lengthAdjust="spacing" textLength="76" x="166.48" y="572.9102">skos:Concept</text><line style="stroke:#A80036;stroke-width:1.5;" x1="138.48" x2="244.48" y1="584" y2="584"/><line style="stroke:#A80036;stroke-width:1.5;" x1="138.48" x2="244.48" y1="592" y2="592"/><!--MD5=[7cf1be3a8858e2d91874fed0b1885c9d]
reverse link owl:Thing to owl:Class--><path codeLine="13" d="M712.38,103.16 C718.6,191.54 724.31,355.42 685.48,396 C654.59,428.29 349.95,443.03 235.04,447.48 " fill="none" id="owl:Thing-backto-owl:Class" style="stroke:#A80036;stroke-width:1.0;"/><polygon fill="none" points="705.4,103.68,710.88,83.21,719.36,102.63,705.4,103.68" style="stroke:#A80036;stroke-width:1.0;"/><!--MD5=[9454734c81e4b936073575daf7be71f2]
link owl:Thing to owl:Class--><path codeLine="33" d="M632.74,54.42 C474.44,73.94 113.9,127.96 41.48,222 C21.32,248.18 6,338.42 48.48,396 C70.27,425.53 110.37,438.62 142.58,444.41 " fill="none" id="owl:Thing-to-owl:Class" style="stroke:#A80036;stroke-width:1.0;"/><polygon fill="#A80036" points="147.68,445.28,139.4677,439.8433,142.7492,444.4511,138.1414,447.7325,147.68,445.28" style="stroke:#A80036;stroke-width:1.0;"/><text fill="#000000" font-family="sans-serif" font-size="13" lengthAdjust="spacing" textLength="43" x="42.48" y="251.4951">rdf:type</text><!--MD5=[82a2fb0b8383334e3120e71dd411f7e5]
reverse link owl:Thing to rdf:Property--><path codeLine="16" d="M614.24,82.99 C560.02,104.5 493.97,130.71 450.2,148.07 " fill="none" id="owl:Thing-backto-rdf:Property" style="stroke:#A80036;stroke-width:1.0;"/><polygon fill="none" points="611.7,76.47,632.87,75.6,616.86,89.48,611.7,76.47" style="stroke:#A80036;stroke-width:1.0;"/><!--MD5=[5b368d0abc5ecfbb61460481483f6cd9]
reverse link owl:Thing to rdfs:Datatype--><path codeLine="17" d="M731.1,102.66 C732.04,106.12 732.84,109.59 733.48,113 C756.63,236.63 747.46,271 733.48,396 C732.37,405.94 730.12,416.73 727.87,425.97 " fill="none" id="owl:Thing-backto-rdfs:Datatype" style="stroke:#A80036;stroke-width:1.0;"/><polygon fill="none" points="724.3,104.38,724.71,83.2,737.6,100.01,724.3,104.38" style="stroke:#A80036;stroke-width:1.0;"/><!--MD5=[6d98ba13494a7f56f78a55d2c327ff45]
reverse link owl:Thing to owl:NamedIndividual--><path codeLine="18" d="M786.49,95.6 C792.92,101.09 799.03,106.91 804.48,113 C834.15,146.16 855.87,193.92 867.01,221.97 " fill="none" id="owl:Thing-backto-owl:NamedIndividual" style="stroke:#A80036;stroke-width:1.0;"/><polygon fill="none" points="781.94,100.93,770.55,83.06,790.6,89.93,781.94,100.93" style="stroke:#A80036;stroke-width:1.0;"/><!--MD5=[787c43f2210348152f55fb7241c33ad2]
reverse link owl:NamedIndividual to skos:Concept--><path codeLine="19" d="M872.16,290.24 C865.73,342.22 846.85,428.16 791.48,474 C708.6,542.63 377.58,565.99 245.9,572.67 " fill="none" id="owl:NamedIndividual-backto-skos:Concept" style="stroke:#A80036;stroke-width:1.0;"/><polygon fill="none" points="865.21,289.44,874.23,270.26,879.14,290.88,865.21,289.44" style="stroke:#A80036;stroke-width:1.0;"/><!--MD5=[0ecd6654d0d80bf4bfe8bbd1cb218d47]
reverse link rdf:Property to owl:DatatypeProperty--><path codeLine="20" d="M444.57,205.41 C478.34,234.63 524.74,274.77 553.65,299.79 " fill="none" id="rdf:Property-backto-owl:DatatypeProperty" style="stroke:#A80036;stroke-width:1.0;"/><polygon fill="none" points="439.68,210.43,429.13,192.06,448.84,199.85,439.68,210.43" style="stroke:#A80036;stroke-width:1.0;"/><!--MD5=[2e4ad316f8ad8308b9fc4796b7da8d5f]
reverse link rdf:Property to owl:ObjectProperty--><path codeLine="21" d="M348.29,202.65 C300.93,232.06 233.43,273.98 191.87,299.79 " fill="none" id="rdf:Property-backto-owl:ObjectProperty" style="stroke:#A80036;stroke-width:1.0;"/><polygon fill="none" points="344.67,196.66,365.36,192.06,352.06,208.55,344.67,196.66" style="stroke:#A80036;stroke-width:1.0;"/><!--MD5=[63d71481324fef0d72834c421d503af2]
link owl:ObjectProperty to owl:ObjectProperty--><path codeLine="24" d="M221.68,312.41 C241.29,312.81 256.48,316.67 256.48,324 C256.48,330.64 244.01,334.43 227.07,335.39 " fill="none" id="owl:ObjectProperty-to-owl:ObjectProperty" style="stroke:#A80036;stroke-width:1.0;"/><polygon fill="#A80036" points="221.68,335.59,230.8223,339.2532,226.6766,335.4044,230.5253,331.2587,221.68,335.59" style="stroke:#A80036;stroke-width:1.0;"/><text fill="#000000" font-family="sans-serif" font-size="13" lengthAdjust="spacing" textLength="81" x="262.48" y="329.4951">owl:inverseOF</text><!--MD5=[1698d827f6150a4cd5253850a77ebd51]
link rdf:Property to owl:Class--><path codeLine="26" d="M400.94,192.21 C397.45,228.74 386.22,300.38 350.48,348 C322.21,385.67 275.42,412.93 239.9,429.56 " fill="none" id="rdf:Property-to-owl:Class" style="stroke:#A80036;stroke-width:1.0;"/><polygon fill="#A80036" points="235.19,431.73,245.0378,431.5844,239.7285,429.632,241.681,424.3228,235.19,431.73" style="stroke:#A80036;stroke-width:1.0;"/><text fill="#000000" font-family="sans-serif" font-size="13" lengthAdjust="spacing" textLength="67" x="376.48" y="329.4951">rdfs:domain</text><!--MD5=[d6104c4ca319975ceff79b90b3692410]
link owl:ObjectProperty to owl:Class--><path codeLine="27" d="M161.36,348.03 C167.5,368.61 176.51,398.81 183.08,420.82 " fill="none" id="owl:ObjectProperty-to-owl:Class" style="stroke:#A80036;stroke-width:1.0;"/><polygon fill="#A80036" points="184.52,425.67,185.7786,415.9019,183.0898,420.8789,178.1128,418.1902,184.52,425.67" style="stroke:#A80036;stroke-width:1.0;"/><text fill="#000000" font-family="sans-serif" font-size="13" lengthAdjust="spacing" textLength="57" x="176.48" y="392.4951">rdfs:range</text><!--MD5=[c4416322e8be7d7214c3727dcbc4cc99]
link owl:DatatypeProperty to rdfs:Datatype--><path codeLine="28" d="M606.67,348.03 C630.56,369.04 665.87,400.09 691.01,422.2 " fill="none" id="owl:DatatypeProperty-to-rdfs:Datatype" style="stroke:#A80036;stroke-width:1.0;"/><polygon fill="#A80036" points="694.95,425.67,690.8468,416.7166,691.2004,422.3624,685.5546,422.7159,694.95,425.67" style="stroke:#A80036;stroke-width:1.0;"/><text fill="#000000" font-family="sans-serif" font-size="13" lengthAdjust="spacing" textLength="57" x="659.48" y="392.4951">rdfs:range</text><!--MD5=[12de5264756f77d3b77cc0c491fe0f64]
link owl:Class to owl:Class--><path codeLine="29" d="M235.07,446.17 C253.88,445.86 269.98,447.13 269.98,450 C269.98,452.6 256.76,453.89 240.28,453.87 " fill="none" id="owl:Class-to-owl:Class" style="stroke:#A80036;stroke-width:1.0;"/><polygon fill="#A80036" points="235.07,453.83,244.0354,457.907,240.0698,453.8729,244.104,449.9073,235.07,453.83" style="stroke:#A80036;stroke-width:1.0;"/><text fill="#000000" font-family="sans-serif" font-size="13" lengthAdjust="spacing" textLength="92" x="275.98" y="455.4951">rdfs:subClassOf</text><!--MD5=[12de5264756f77d3b77cc0c491fe0f64]
link owl:Class to owl:Class--><path codeLine="30" d="M235.08,444.25 C291.76,440.29 373.98,442.21 373.98,450 C373.98,457.56 296.51,459.59 240.12,456.08 " fill="none" id="owl:Class-to-owl:Class-1" style="stroke:#A80036;stroke-width:1.0;"/><polygon fill="#A80036" points="235.08,455.75,243.7983,460.3315,240.0692,456.0779,244.3229,452.3488,235.08,455.75" style="stroke:#A80036;stroke-width:1.0;"/><text fill="#000000" font-family="sans-serif" font-size="13" lengthAdjust="spacing" textLength="91" x="379.98" y="455.4951">owl:disjointWith</text><!--MD5=[12de5264756f77d3b77cc0c491fe0f64]
link owl:Class to owl:Class--><path codeLine="31" d="M234.99,443.03 C319.68,435.02 476.98,437.35 476.98,450 C476.98,462.41 325.77,464.88 240.03,457.43 " fill="none" id="owl:Class-to-owl:Class-2" style="stroke:#A80036;stroke-width:1.0;"/><polygon fill="#A80036" points="234.99,456.97,243.5859,461.7773,239.969,457.4278,244.3185,453.8109,234.99,456.97" style="stroke:#A80036;stroke-width:1.0;"/><text fill="#000000" font-family="sans-serif" font-size="13" lengthAdjust="spacing" textLength="113" x="482.98" y="455.4951">owl:equivalentClass</text><!--MD5=[c8bbed206d81b287eb74632cc744d5c5]
link rdf:Property to rdf:Property--><path codeLine="32" d="M450.37,157.93 C469.23,157.42 484.98,160.78 484.98,168 C484.98,174.55 472.05,177.92 455.58,178.12 " fill="none" id="rdf:Property-to-rdf:Property" style="stroke:#A80036;stroke-width:1.0;"/><polygon fill="#A80036" points="450.37,178.07,459.3354,182.147,455.3698,178.1129,459.404,174.1473,450.37,178.07" style="stroke:#A80036;stroke-width:1.0;"/><text fill="#000000" font-family="sans-serif" font-size="13" lengthAdjust="spacing" textLength="108" x="490.98" y="173.4951">rdfs:subPropertyOf</text><!--MD5=[538a61c26de25d04b05548079eb9f818]
link owl:Class to skos:Concept--><path codeLine="34" d="M191.48,474.03 C191.48,494.52 191.48,524.56 191.48,546.55 " fill="none" id="owl:Class-to-skos:Concept" style="stroke:#A80036;stroke-width:1.0;"/><polygon fill="#A80036" points="191.48,551.67,195.48,542.67,191.48,546.67,187.48,542.67,191.48,551.67" style="stroke:#A80036;stroke-width:1.0;"/><text fill="#000000" font-family="sans-serif" font-size="13" lengthAdjust="spacing" textLength="72" x="192.48" y="518.4951">rdfs:seeAlso</text><!--MD5=[d2e43886339c2356685bc5399807d4cf]
link rdf:Property to skos:Concept--><path codeLine="35" d="M354.94,171.14 C278.62,177.49 131.12,202.44 69.48,300 C15.82,384.95 111.71,497.53 162.68,548.23 " fill="none" id="rdf:Property-to-skos:Concept" style="stroke:#A80036;stroke-width:1.0;"/><polygon fill="#A80036" points="166.27,551.77,162.6788,542.5992,162.7131,548.256,157.0564,548.2902,166.27,551.77" style="stroke:#A80036;stroke-width:1.0;"/><text fill="#000000" font-family="sans-serif" font-size="13" lengthAdjust="spacing" textLength="72" x="61.48" y="392.4951">rdfs:seeAlso</text><!--MD5=[56872e03e24a18610441c693a226263f]
link owl:NamedIndividual to owl:NamedIndividual--><path codeLine="36" d="M949.01,238.74 C968.87,239.12 983.98,241.54 983.98,246 C983.98,250.07 971.36,252.44 954.02,253.11 " fill="none" id="owl:NamedIndividual-to-owl:NamedIndividual" style="stroke:#A80036;stroke-width:1.0;"/><polygon fill="#A80036" points="949.01,253.26,958.1209,257.0006,954.0079,253.1168,957.8917,249.0039,949.01,253.26" style="stroke:#A80036;stroke-width:1.0;"/><text fill="#000000" font-family="sans-serif" font-size="13" lengthAdjust="spacing" textLength="71" x="989.98" y="251.4951">owl:sameAs</text><!--MD5=[56872e03e24a18610441c693a226263f]
link owl:NamedIndividual to owl:NamedIndividual--><path codeLine="37" d="M949.06,232.8 C1005.11,228.8 1066.98,233.2 1066.98,246 C1066.98,258.4 1008.92,262.91 954.33,259.55 " fill="none" id="owl:NamedIndividual-to-owl:NamedIndividual-1" style="stroke:#A80036;stroke-width:1.0;"/><polygon fill="#A80036" points="949.06,259.2,957.7775,263.7832,954.0492,259.5288,958.3036,255.8005,949.06,259.2" style="stroke:#A80036;stroke-width:1.0;"/><text fill="#000000" font-family="sans-serif" font-size="13" lengthAdjust="spacing" textLength="98" x="1072.98" y="251.4951">owl:differentFrom</text><!--MD5=[1881ca04bbc7d07b8f55f5560ae859c6]
@startuml vocabulary

class "owl:Class" [[http://www.w3.org/2000/01/rdf-schema#Class]]
class "owl:DatatypeProperty" [[http://www.w3.org/2002/07/owl#DatatypeProperty]]
class "owl:ObjectProperty" [[http://www.w3.org/2002/07/owl#ObjectProperty]]
abstract class "rdf:Property" [[http://www.w3.org/1999/02/22-rdf-syntax-ns#Property]] 
class "rdfs:Datatype" [[http://www.w3.org/2000/01/rdf-schema#Datatype]] 
class "owl:NamedIndividual" [[http://www.w3.org/2002/07/owl#NamedIndividual]] 
abstract class "owl:Thing" [[http://www.w3.org/2002/07/owl#Thing]]{ 
  [[http://www.w3.org/2000/01/rdf-schema#label rdfs:label ]]: xsd:string
 [[http://www.w3.org/2000/01/rdf-schema#comment rdfs:comment ]]  : "xsd:string" 
}

"owl:Thing" <|- -  "owl:Class"


"owl:Thing" <|- -   "rdf:Property"
"owl:Thing" <|- -   "rdfs:Datatype"
"owl:Thing" <|- -   "owl:NamedIndividual"
"owl:NamedIndividual" <|- - "skos:Concept"
"rdf:Property" <|- - "owl:DatatypeProperty"
"rdf:Property" <|- - "owl:ObjectProperty"


"owl:ObjectProperty" - -> "owl:ObjectProperty" : "owl:inverseOF"

"rdf:Property"- -> "owl:Class" : "rdfs:domain"
"owl:ObjectProperty"- -> "owl:Class" : "rdfs:range"
"owl:DatatypeProperty"- -> "rdfs:Datatype" : "rdfs:range"
"owl:Class" - -> "owl:Class" : "rdfs:subClassOf"
"owl:Class" - -> "owl:Class" : "owl:disjointWith" 
"owl:Class" - -> "owl:Class" : "owl:equivalentClass"
"rdf:Property" - -> "rdf:Property" : "rdfs:subPropertyOf"
"owl:Thing" - -> "owl:Class" : "rdf:type"
"owl:Class" - ->  "skos:Concept" : "rdfs:seeAlso"
"rdf:Property" - ->  "skos:Concept" : "rdfs:seeAlso"
"owl:NamedIndividual" - -> "owl:NamedIndividual" : "owl:sameAs"
"owl:NamedIndividual" - -> "owl:NamedIndividual" : "owl:differentFrom"

@enduml

PlantUML version 1.2022.0(Tue Jan 11 17:16:42 CET 2022)
(GPL source distribution)
Java Runtime: Java(TM) SE Runtime Environment
JVM: Java HotSpot(TM) 64-Bit Server VM
Default Encoding: Cp1252
Language: nl
Country: NL
--></g></svg>