<?xml version="1.0" encoding="UTF-8" standalone="no"?><svg xmlns="http://www.w3.org/2000/svg" xmlns:xlink="http://www.w3.org/1999/xlink" contentScriptType="application/ecmascript" contentStyleType="text/css" height="614px" preserveAspectRatio="none" style="width:1186px;height:614px;background:#FFFFFF;" version="1.1" viewBox="0 0 1186 614" width="1186px" zoomAndPan="magnify"><defs><filter height="300%" id="f55m9tzyc60oo" width="300%" x="-1" y="-1"><feGaussianBlur result="blurOut" stdDeviation="2.0"/><feColorMatrix in="blurOut" result="blurOut2" type="matrix" values="0 0 0 0 0 0 0 0 0 0 0 0 0 0 0 0 0 0 .4 0"/><feOffset dx="4.0" dy="4.0" in="blurOut2" result="blurOut3"/><feBlend in="SourceGraphic" in2="blurOut3" mode="normal"/></filter></defs><g><!--MD5=[f5ce388bc7d1e648277699e93003c1c4]
class owl:Class--><a href="http://www.w3.org/2000/01/rdf-schema#Class" target="_top" title="http://www.w3.org/2000/01/rdf-schema#Class" xlink:actuate="onRequest" xlink:href="http://www.w3.org/2000/01/rdf-schema#Class" xlink:show="new" xlink:title="http://www.w3.org/2000/01/rdf-schema#Class" xlink:type="simple"><rect codeLine="2" fill="#FEFECE" filter="url(#f55m9tzyc60oo)" height="48" id="owl:Class" style="stroke:#A80036;stroke-width:1.5;" width="87" x="280.01" y="426"/><ellipse cx="295.01" cy="442" fill="#ADD1B2" rx="11" ry="11" style="stroke:#A80036;stroke-width:1.0;"/><path d="M297.7756,437.875 Q297.9319,437.6563 298.1194,437.5469 Q298.3069,437.4375 298.5256,437.4375 Q298.9006,437.4375 299.135,437.6953 Q299.3694,437.9531 299.3694,438.5625 L299.3694,440.0156 Q299.3694,440.625 299.135,440.8906 Q298.9006,441.1563 298.5256,441.1563 Q298.1819,441.1563 297.9788,440.9531 Q297.7756,440.7656 297.6663,440.25 Q297.6194,439.8906 297.4319,439.7031 Q297.1038,439.3281 296.4944,439.1094 Q295.885,438.8906 295.26,438.8906 Q294.4944,438.8906 293.8616,439.2188 Q293.2288,439.5469 292.7366,440.2969 Q292.2444,441.0469 292.2444,442.0781 L292.2444,443.1719 Q292.2444,444.4063 293.135,445.2266 Q294.0256,446.0469 295.6194,446.0469 Q296.5569,446.0469 297.2131,445.7969 Q297.6038,445.6406 298.0256,445.2031 Q298.2913,444.9375 298.4397,444.8594 Q298.5881,444.7813 298.7913,444.7813 Q299.1194,444.7813 299.3772,445.0391 Q299.635,445.2969 299.635,445.6406 Q299.635,445.9844 299.2913,446.3906 Q298.7913,446.9688 297.9944,447.2969 Q296.9163,447.75 295.6194,447.75 Q294.1038,447.75 292.9006,447.125 Q291.9163,446.625 291.2288,445.5547 Q290.5413,444.4844 290.5413,443.2031 L290.5413,442.0469 Q290.5413,440.7188 291.1584,439.5703 Q291.7756,438.4219 292.8694,437.8047 Q293.9631,437.1875 295.1975,437.1875 Q295.9319,437.1875 296.5803,437.3516 Q297.2288,437.5156 297.7756,437.875 Z " fill="#000000"/><text fill="#000000" font-family="sans-serif" font-size="12" lengthAdjust="spacing" textLength="55" x="309.01" y="446.9102">owl:Class</text><line style="stroke:#A80036;stroke-width:1.5;" x1="281.01" x2="366.01" y1="458" y2="458"/><line style="stroke:#A80036;stroke-width:1.5;" x1="281.01" x2="366.01" y1="466" y2="466"/></a><!--MD5=[26d97e0ce71724a026b94e990c41e6be]
class owl:DatatypeProperty--><a href="http://www.w3.org/2002/07/owl#DatatypeProperty" target="_top" title="http://www.w3.org/2002/07/owl#DatatypeProperty" xlink:actuate="onRequest" xlink:href="http://www.w3.org/2002/07/owl#DatatypeProperty" xlink:show="new" xlink:title="http://www.w3.org/2002/07/owl#DatatypeProperty" xlink:type="simple"><rect codeLine="3" fill="#FEFECE" filter="url(#f55m9tzyc60oo)" height="48" id="owl:DatatypeProperty" style="stroke:#A80036;stroke-width:1.5;" width="147" x="509.01" y="300"/><ellipse cx="524.01" cy="316" fill="#ADD1B2" rx="11" ry="11" style="stroke:#A80036;stroke-width:1.0;"/><path d="M526.7756,311.875 Q526.9319,311.6563 527.1194,311.5469 Q527.3069,311.4375 527.5256,311.4375 Q527.9006,311.4375 528.135,311.6953 Q528.3694,311.9531 528.3694,312.5625 L528.3694,314.0156 Q528.3694,314.625 528.135,314.8906 Q527.9006,315.1563 527.5256,315.1563 Q527.1819,315.1563 526.9788,314.9531 Q526.7756,314.7656 526.6663,314.25 Q526.6194,313.8906 526.4319,313.7031 Q526.1038,313.3281 525.4944,313.1094 Q524.885,312.8906 524.26,312.8906 Q523.4944,312.8906 522.8616,313.2188 Q522.2288,313.5469 521.7366,314.2969 Q521.2444,315.0469 521.2444,316.0781 L521.2444,317.1719 Q521.2444,318.4063 522.135,319.2266 Q523.0256,320.0469 524.6194,320.0469 Q525.5569,320.0469 526.2131,319.7969 Q526.6038,319.6406 527.0256,319.2031 Q527.2913,318.9375 527.4397,318.8594 Q527.5881,318.7813 527.7913,318.7813 Q528.1194,318.7813 528.3772,319.0391 Q528.635,319.2969 528.635,319.6406 Q528.635,319.9844 528.2913,320.3906 Q527.7913,320.9688 526.9944,321.2969 Q525.9163,321.75 524.6194,321.75 Q523.1038,321.75 521.9006,321.125 Q520.9163,320.625 520.2288,319.5547 Q519.5413,318.4844 519.5413,317.2031 L519.5413,316.0469 Q519.5413,314.7188 520.1584,313.5703 Q520.7756,312.4219 521.8694,311.8047 Q522.9631,311.1875 524.1975,311.1875 Q524.9319,311.1875 525.5803,311.3516 Q526.2288,311.5156 526.7756,311.875 Z " fill="#000000"/><text fill="#000000" font-family="sans-serif" font-size="12" lengthAdjust="spacing" textLength="115" x="538.01" y="320.9102">owl:DatatypeProperty</text><line style="stroke:#A80036;stroke-width:1.5;" x1="510.01" x2="655.01" y1="332" y2="332"/><line style="stroke:#A80036;stroke-width:1.5;" x1="510.01" x2="655.01" y1="340" y2="340"/></a><!--MD5=[6be91a87ff57af43446cece8d03445bb]
class owl:ObjectProperty--><a href="http://www.w3.org/2002/07/owl#ObjectProperty" target="_top" title="http://www.w3.org/2002/07/owl#ObjectProperty" xlink:actuate="onRequest" xlink:href="http://www.w3.org/2002/07/owl#ObjectProperty" xlink:show="new" xlink:title="http://www.w3.org/2002/07/owl#ObjectProperty" xlink:type="simple"><rect codeLine="4" fill="#FEFECE" filter="url(#f55m9tzyc60oo)" height="48" id="owl:ObjectProperty" style="stroke:#A80036;stroke-width:1.5;" width="134" x="89.51" y="300"/><ellipse cx="104.51" cy="316" fill="#ADD1B2" rx="11" ry="11" style="stroke:#A80036;stroke-width:1.0;"/><path d="M107.2756,311.875 Q107.4319,311.6563 107.6194,311.5469 Q107.8069,311.4375 108.0256,311.4375 Q108.4006,311.4375 108.635,311.6953 Q108.8694,311.9531 108.8694,312.5625 L108.8694,314.0156 Q108.8694,314.625 108.635,314.8906 Q108.4006,315.1563 108.0256,315.1563 Q107.6819,315.1563 107.4787,314.9531 Q107.2756,314.7656 107.1662,314.25 Q107.1194,313.8906 106.9319,313.7031 Q106.6037,313.3281 105.9944,313.1094 Q105.385,312.8906 104.76,312.8906 Q103.9944,312.8906 103.3616,313.2188 Q102.7287,313.5469 102.2366,314.2969 Q101.7444,315.0469 101.7444,316.0781 L101.7444,317.1719 Q101.7444,318.4063 102.635,319.2266 Q103.5256,320.0469 105.1194,320.0469 Q106.0569,320.0469 106.7131,319.7969 Q107.1037,319.6406 107.5256,319.2031 Q107.7912,318.9375 107.9397,318.8594 Q108.0881,318.7813 108.2912,318.7813 Q108.6194,318.7813 108.8772,319.0391 Q109.135,319.2969 109.135,319.6406 Q109.135,319.9844 108.7912,320.3906 Q108.2912,320.9688 107.4944,321.2969 Q106.4162,321.75 105.1194,321.75 Q103.6037,321.75 102.4006,321.125 Q101.4162,320.625 100.7287,319.5547 Q100.0412,318.4844 100.0412,317.2031 L100.0412,316.0469 Q100.0412,314.7188 100.6584,313.5703 Q101.2756,312.4219 102.3694,311.8047 Q103.4631,311.1875 104.6975,311.1875 Q105.4319,311.1875 106.0803,311.3516 Q106.7287,311.5156 107.2756,311.875 Z " fill="#000000"/><text fill="#000000" font-family="sans-serif" font-size="12" lengthAdjust="spacing" textLength="102" x="118.51" y="320.9102">owl:ObjectProperty</text><line style="stroke:#A80036;stroke-width:1.5;" x1="90.51" x2="222.51" y1="332" y2="332"/><line style="stroke:#A80036;stroke-width:1.5;" x1="90.51" x2="222.51" y1="340" y2="340"/></a><!--MD5=[f5d6fba28c9acdd96eb01d07ddcb0e48]
class rdf:Property--><a href="http://www.w3.org/1999/02/22-rdf-syntax-ns#Property" target="_top" title="http://www.w3.org/1999/02/22-rdf-syntax-ns#Property" xlink:actuate="onRequest" xlink:href="http://www.w3.org/1999/02/22-rdf-syntax-ns#Property" xlink:show="new" xlink:title="http://www.w3.org/1999/02/22-rdf-syntax-ns#Property" xlink:type="simple"><rect codeLine="5" fill="#FEFECE" filter="url(#f55m9tzyc60oo)" height="48" id="rdf:Property" style="stroke:#A80036;stroke-width:1.5;" width="95" x="357.01" y="144"/><ellipse cx="372.01" cy="160" fill="#A9DCDF" rx="11" ry="11" style="stroke:#A80036;stroke-width:1.0;"/><path d="M374.1975,161.7656 L370.0569,161.7656 L369.635,162.7969 L370.0569,162.7969 Q370.6663,162.7969 370.9319,163.0313 Q371.1975,163.2656 371.1975,163.6563 Q371.1975,164.0313 370.9319,164.2656 Q370.6663,164.5 370.0569,164.5 L367.76,164.5 Q367.1506,164.5 366.8928,164.2656 Q366.635,164.0313 366.635,163.6406 Q366.635,163.2656 366.9084,163.0234 Q367.1819,162.7813 367.8069,162.7969 L370.4788,156.1406 L369.3694,156.1406 Q368.76,156.1406 368.4944,155.9063 Q368.2288,155.6719 368.2288,155.2813 Q368.2288,154.9063 368.4944,154.6719 Q368.76,154.4375 369.3694,154.4375 L373.0413,154.4375 L376.4319,162.7969 Q377.0256,162.7969 377.2131,162.9375 Q377.6038,163.2031 377.6038,163.6563 Q377.6038,164.0313 377.3459,164.2656 Q377.0881,164.5 376.4788,164.5 L374.1819,164.5 Q373.5725,164.5 373.3069,164.2656 Q373.0413,164.0313 373.0413,163.6406 Q373.0413,163.2656 373.3069,163.0313 Q373.5725,162.7969 374.1819,162.7969 L374.6038,162.7969 L374.1975,161.7656 Z M373.4788,160.0625 L372.1194,156.6875 L370.7444,160.0625 L373.4788,160.0625 Z " fill="#000000"/><text fill="#000000" font-family="sans-serif" font-size="12" font-style="italic" lengthAdjust="spacing" textLength="63" x="386.01" y="164.9102">rdf:Property</text><line style="stroke:#A80036;stroke-width:1.5;" x1="358.01" x2="451.01" y1="176" y2="176"/><line style="stroke:#A80036;stroke-width:1.5;" x1="358.01" x2="451.01" y1="184" y2="184"/></a><!--MD5=[343ed68f36560b8702214b37b3e3f531]
class rdfs:Datatype--><a href="http://www.w3.org/2000/01/rdf-schema#Datatype" target="_top" title="http://www.w3.org/2000/01/rdf-schema#Datatype" xlink:actuate="onRequest" xlink:href="http://www.w3.org/2000/01/rdf-schema#Datatype" xlink:show="new" xlink:title="http://www.w3.org/2000/01/rdf-schema#Datatype" xlink:type="simple"><rect codeLine="6" fill="#FEFECE" filter="url(#f55m9tzyc60oo)" height="48" id="rdfs:Datatype" style="stroke:#A80036;stroke-width:1.5;" width="104" x="629.51" y="426"/><ellipse cx="644.51" cy="442" fill="#ADD1B2" rx="11" ry="11" style="stroke:#A80036;stroke-width:1.0;"/><path d="M647.2756,437.875 Q647.4319,437.6563 647.6194,437.5469 Q647.8069,437.4375 648.0256,437.4375 Q648.4006,437.4375 648.635,437.6953 Q648.8694,437.9531 648.8694,438.5625 L648.8694,440.0156 Q648.8694,440.625 648.635,440.8906 Q648.4006,441.1563 648.0256,441.1563 Q647.6819,441.1563 647.4788,440.9531 Q647.2756,440.7656 647.1663,440.25 Q647.1194,439.8906 646.9319,439.7031 Q646.6038,439.3281 645.9944,439.1094 Q645.385,438.8906 644.76,438.8906 Q643.9944,438.8906 643.3616,439.2188 Q642.7288,439.5469 642.2366,440.2969 Q641.7444,441.0469 641.7444,442.0781 L641.7444,443.1719 Q641.7444,444.4063 642.635,445.2266 Q643.5256,446.0469 645.1194,446.0469 Q646.0569,446.0469 646.7131,445.7969 Q647.1038,445.6406 647.5256,445.2031 Q647.7913,444.9375 647.9397,444.8594 Q648.0881,444.7813 648.2913,444.7813 Q648.6194,444.7813 648.8772,445.0391 Q649.135,445.2969 649.135,445.6406 Q649.135,445.9844 648.7913,446.3906 Q648.2913,446.9688 647.4944,447.2969 Q646.4163,447.75 645.1194,447.75 Q643.6038,447.75 642.4006,447.125 Q641.4163,446.625 640.7288,445.5547 Q640.0413,444.4844 640.0413,443.2031 L640.0413,442.0469 Q640.0413,440.7188 640.6584,439.5703 Q641.2756,438.4219 642.3694,437.8047 Q643.4631,437.1875 644.6975,437.1875 Q645.4319,437.1875 646.0803,437.3516 Q646.7288,437.5156 647.2756,437.875 Z " fill="#000000"/><text fill="#000000" font-family="sans-serif" font-size="12" lengthAdjust="spacing" textLength="72" x="658.51" y="446.9102">rdfs:Datatype</text><line style="stroke:#A80036;stroke-width:1.5;" x1="630.51" x2="732.51" y1="458" y2="458"/><line style="stroke:#A80036;stroke-width:1.5;" x1="630.51" x2="732.51" y1="466" y2="466"/></a><!--MD5=[31591eb83966fda816a78a490949f972]
class owl:NamedIndividual--><a href="http://www.w3.org/2002/07/owl#NamedIndividual" target="_top" title="http://www.w3.org/2002/07/owl#NamedIndividual" xlink:actuate="onRequest" xlink:href="http://www.w3.org/2002/07/owl#NamedIndividual" xlink:show="new" xlink:title="http://www.w3.org/2002/07/owl#NamedIndividual" xlink:type="simple"><rect codeLine="7" fill="#FEFECE" filter="url(#f55m9tzyc60oo)" height="48" id="owl:NamedIndividual" style="stroke:#A80036;stroke-width:1.5;" width="147" x="804.01" y="222"/><ellipse cx="819.01" cy="238" fill="#ADD1B2" rx="11" ry="11" style="stroke:#A80036;stroke-width:1.0;"/><path d="M821.7756,233.875 Q821.9319,233.6563 822.1194,233.5469 Q822.3069,233.4375 822.5256,233.4375 Q822.9006,233.4375 823.135,233.6953 Q823.3694,233.9531 823.3694,234.5625 L823.3694,236.0156 Q823.3694,236.625 823.135,236.8906 Q822.9006,237.1563 822.5256,237.1563 Q822.1819,237.1563 821.9788,236.9531 Q821.7756,236.7656 821.6663,236.25 Q821.6194,235.8906 821.4319,235.7031 Q821.1038,235.3281 820.4944,235.1094 Q819.885,234.8906 819.26,234.8906 Q818.4944,234.8906 817.8616,235.2188 Q817.2288,235.5469 816.7366,236.2969 Q816.2444,237.0469 816.2444,238.0781 L816.2444,239.1719 Q816.2444,240.4063 817.135,241.2266 Q818.0256,242.0469 819.6194,242.0469 Q820.5569,242.0469 821.2131,241.7969 Q821.6038,241.6406 822.0256,241.2031 Q822.2913,240.9375 822.4397,240.8594 Q822.5881,240.7813 822.7913,240.7813 Q823.1194,240.7813 823.3772,241.0391 Q823.635,241.2969 823.635,241.6406 Q823.635,241.9844 823.2913,242.3906 Q822.7913,242.9688 821.9944,243.2969 Q820.9163,243.75 819.6194,243.75 Q818.1038,243.75 816.9006,243.125 Q815.9163,242.625 815.2288,241.5547 Q814.5413,240.4844 814.5413,239.2031 L814.5413,238.0469 Q814.5413,236.7188 815.1584,235.5703 Q815.7756,234.4219 816.8694,233.8047 Q817.9631,233.1875 819.1975,233.1875 Q819.9319,233.1875 820.5803,233.3516 Q821.2288,233.5156 821.7756,233.875 Z " fill="#000000"/><text fill="#000000" font-family="sans-serif" font-size="12" lengthAdjust="spacing" textLength="115" x="833.01" y="242.9102">owl:NamedIndividual</text><line style="stroke:#A80036;stroke-width:1.5;" x1="805.01" x2="950.01" y1="254" y2="254"/><line style="stroke:#A80036;stroke-width:1.5;" x1="805.01" x2="950.01" y1="262" y2="262"/></a><!--MD5=[f071ecb23dbf121833784480fda18997]
class owl:Thing--><a href="http://www.w3.org/2002/07/owl#Thing" target="_top" title="http://www.w3.org/2002/07/owl#Thing" xlink:actuate="onRequest" xlink:href="http://www.w3.org/2002/07/owl#Thing" xlink:show="new" xlink:title="http://www.w3.org/2002/07/owl#Thing" xlink:type="simple"><rect codeLine="8" fill="#FEFECE" filter="url(#f55m9tzyc60oo)" height="75.6719" id="owl:Thing" style="stroke:#A80036;stroke-width:1.5;" width="149" x="635.01" y="7"/><ellipse cx="679.26" cy="23" fill="#A9DCDF" rx="11" ry="11" style="stroke:#A80036;stroke-width:1.0;"/><path d="M681.4475,24.7656 L677.3069,24.7656 L676.885,25.7969 L677.3069,25.7969 Q677.9163,25.7969 678.1819,26.0313 Q678.4475,26.2656 678.4475,26.6563 Q678.4475,27.0313 678.1819,27.2656 Q677.9163,27.5 677.3069,27.5 L675.01,27.5 Q674.4006,27.5 674.1428,27.2656 Q673.885,27.0313 673.885,26.6406 Q673.885,26.2656 674.1584,26.0234 Q674.4319,25.7813 675.0569,25.7969 L677.7288,19.1406 L676.6194,19.1406 Q676.01,19.1406 675.7444,18.9063 Q675.4788,18.6719 675.4788,18.2813 Q675.4788,17.9063 675.7444,17.6719 Q676.01,17.4375 676.6194,17.4375 L680.2913,17.4375 L683.6819,25.7969 Q684.2756,25.7969 684.4631,25.9375 Q684.8538,26.2031 684.8538,26.6563 Q684.8538,27.0313 684.5959,27.2656 Q684.3381,27.5 683.7288,27.5 L681.4319,27.5 Q680.8225,27.5 680.5569,27.2656 Q680.2913,27.0313 680.2913,26.6406 Q680.2913,26.2656 680.5569,26.0313 Q680.8225,25.7969 681.4319,25.7969 L681.8538,25.7969 L681.4475,24.7656 Z M680.7288,23.0625 L679.3694,19.6875 L677.9944,23.0625 L680.7288,23.0625 Z " fill="#000000"/><text fill="#000000" font-family="sans-serif" font-size="12" font-style="italic" lengthAdjust="spacing" textLength="52" x="699.76" y="27.9102">owl:Thing</text><line style="stroke:#A80036;stroke-width:1.5;" x1="636.01" x2="783.01" y1="39" y2="39"/></a><a href="http://www.w3.org/2000/01/rdf-schema#label" target="_top" title="http://www.w3.org/2000/01/rdf-schema#label" xlink:actuate="onRequest" xlink:href="http://www.w3.org/2000/01/rdf-schema#label" xlink:show="new" xlink:title="http://www.w3.org/2000/01/rdf-schema#label" xlink:type="simple"><text fill="#0000FF" font-family="sans-serif" font-size="11" lengthAdjust="spacing" text-decoration="underline" textLength="45" x="641.01" y="54.4189">rdfs:label</text></a><text fill="#000000" font-family="sans-serif" font-size="11" lengthAdjust="spacing" textLength="54" x="689.01" y="54.4189">: xsd:string</text><a href="http://www.w3.org/2000/01/rdf-schema#comment" target="_top" title="http://www.w3.org/2000/01/rdf-schema#comment" xlink:actuate="onRequest" xlink:href="http://www.w3.org/2000/01/rdf-schema#comment" xlink:show="new" xlink:title="http://www.w3.org/2000/01/rdf-schema#comment" xlink:type="simple"><text fill="#0000FF" font-family="sans-serif" font-size="11" lengthAdjust="spacing" text-decoration="underline" textLength="66" x="641.01" y="68.2549">rdfs:comment</text></a><text fill="#000000" font-family="sans-serif" font-size="11" lengthAdjust="spacing" textLength="62" x="716.01" y="68.2549">: "xsd:string"</text><line style="stroke:#A80036;stroke-width:1.5;" x1="636.01" x2="783.01" y1="74.6719" y2="74.6719"/><!--MD5=[e26081150a54feee97befd454a48c707]
class skos:Concept--><rect fill="#FEFECE" filter="url(#f55m9tzyc60oo)" height="48" id="skos:Concept" style="stroke:#A80036;stroke-width:1.5;" width="108" x="269.51" y="552"/><ellipse cx="284.51" cy="568" fill="#ADD1B2" rx="11" ry="11" style="stroke:#A80036;stroke-width:1.0;"/><path d="M287.2756,563.875 Q287.4319,563.6563 287.6194,563.5469 Q287.8069,563.4375 288.0256,563.4375 Q288.4006,563.4375 288.635,563.6953 Q288.8694,563.9531 288.8694,564.5625 L288.8694,566.0156 Q288.8694,566.625 288.635,566.8906 Q288.4006,567.1563 288.0256,567.1563 Q287.6819,567.1563 287.4788,566.9531 Q287.2756,566.7656 287.1663,566.25 Q287.1194,565.8906 286.9319,565.7031 Q286.6038,565.3281 285.9944,565.1094 Q285.385,564.8906 284.76,564.8906 Q283.9944,564.8906 283.3616,565.2188 Q282.7288,565.5469 282.2366,566.2969 Q281.7444,567.0469 281.7444,568.0781 L281.7444,569.1719 Q281.7444,570.4063 282.635,571.2266 Q283.5256,572.0469 285.1194,572.0469 Q286.0569,572.0469 286.7131,571.7969 Q287.1038,571.6406 287.5256,571.2031 Q287.7913,570.9375 287.9397,570.8594 Q288.0881,570.7813 288.2913,570.7813 Q288.6194,570.7813 288.8772,571.0391 Q289.135,571.2969 289.135,571.6406 Q289.135,571.9844 288.7913,572.3906 Q288.2913,572.9688 287.4944,573.2969 Q286.4163,573.75 285.1194,573.75 Q283.6038,573.75 282.4006,573.125 Q281.4163,572.625 280.7288,571.5547 Q280.0413,570.4844 280.0413,569.2031 L280.0413,568.0469 Q280.0413,566.7188 280.6584,565.5703 Q281.2756,564.4219 282.3694,563.8047 Q283.4631,563.1875 284.6975,563.1875 Q285.4319,563.1875 286.0803,563.3516 Q286.7288,563.5156 287.2756,563.875 Z " fill="#000000"/><text fill="#000000" font-family="sans-serif" font-size="12" lengthAdjust="spacing" textLength="76" x="298.51" y="572.9102">skos:Concept</text><line style="stroke:#A80036;stroke-width:1.5;" x1="270.51" x2="376.51" y1="584" y2="584"/><line style="stroke:#A80036;stroke-width:1.5;" x1="270.51" x2="376.51" y1="592" y2="592"/><!--MD5=[7cf1be3a8858e2d91874fed0b1885c9d]
reverse link owl:Thing to owl:Class--><path codeLine="13" d="M714.24,103.27 C720.2,191.48 725.52,354.74 687.51,396 C666.03,419.31 459.01,438.33 367.1,445.71 " fill="none" id="owl:Thing-backto-owl:Class" style="stroke:#A80036;stroke-width:1.0;"/><polygon fill="none" points="707.24,103.55,712.78,83.09,721.21,102.53,707.24,103.55" style="stroke:#A80036;stroke-width:1.0;"/><!--MD5=[9454734c81e4b936073575daf7be71f2]
link owl:Thing to owl:Class--><path codeLine="31" d="M634.76,54.42 C476.46,73.94 115.93,127.96 43.51,222 C20.55,251.81 10.54,347.04 54.51,396 C83.21,427.97 205.23,441.21 274.66,446.23 " fill="none" id="owl:Thing-to-owl:Class" style="stroke:#A80036;stroke-width:1.0;"/><polygon fill="#A80036" points="279.97,446.61,271.2788,441.9772,274.9828,446.2527,270.7072,449.9567,279.97,446.61" style="stroke:#A80036;stroke-width:1.0;"/><text fill="#000000" font-family="sans-serif" font-size="13" lengthAdjust="spacing" textLength="43" x="44.51" y="251.4951">rdf:type</text><!--MD5=[82a2fb0b8383334e3120e71dd411f7e5]
reverse link owl:Thing to rdf:Property--><path codeLine="16" d="M616.26,82.99 C562.04,104.5 495.99,130.71 452.22,148.07 " fill="none" id="owl:Thing-backto-rdf:Property" style="stroke:#A80036;stroke-width:1.0;"/><polygon fill="none" points="613.72,76.47,634.89,75.6,618.88,89.48,613.72,76.47" style="stroke:#A80036;stroke-width:1.0;"/><!--MD5=[5b368d0abc5ecfbb61460481483f6cd9]
reverse link owl:Thing to rdfs:Datatype--><path codeLine="17" d="M733.13,102.66 C734.06,106.12 734.87,109.59 735.51,113 C758.65,236.63 784.18,280.02 735.51,396 C730.73,407.39 722.18,417.56 713.27,425.87 " fill="none" id="owl:Thing-backto-rdfs:Datatype" style="stroke:#A80036;stroke-width:1.0;"/><polygon fill="none" points="726.32,104.38,726.74,83.2,739.63,100.01,726.32,104.38" style="stroke:#A80036;stroke-width:1.0;"/><!--MD5=[6d98ba13494a7f56f78a55d2c327ff45]
reverse link owl:Thing to owl:NamedIndividual--><path codeLine="18" d="M788.51,95.6 C794.94,101.09 801.05,106.91 806.51,113 C836.18,146.16 857.89,193.92 869.03,221.97 " fill="none" id="owl:Thing-backto-owl:NamedIndividual" style="stroke:#A80036;stroke-width:1.0;"/><polygon fill="none" points="783.97,100.93,772.57,83.06,792.62,89.93,783.97,100.93" style="stroke:#A80036;stroke-width:1.0;"/><!--MD5=[787c43f2210348152f55fb7241c33ad2]
reverse link owl:NamedIndividual to skos:Concept--><path codeLine="19" d="M866.65,289.62 C850.83,342.33 816.01,430.42 751.51,474 C634.79,552.86 464,570.51 377.7,574.22 " fill="none" id="owl:NamedIndividual-backto-skos:Concept" style="stroke:#A80036;stroke-width:1.0;"/><polygon fill="none" points="860,287.42,872.14,270.05,873.48,291.2,860,287.42" style="stroke:#A80036;stroke-width:1.0;"/><!--MD5=[0ecd6654d0d80bf4bfe8bbd1cb218d47]
reverse link rdf:Property to owl:DatatypeProperty--><path codeLine="20" d="M446.59,205.41 C480.36,234.63 526.76,274.77 555.67,299.79 " fill="none" id="rdf:Property-backto-owl:DatatypeProperty" style="stroke:#A80036;stroke-width:1.0;"/><polygon fill="none" points="441.7,210.43,431.15,192.06,450.86,199.85,441.7,210.43" style="stroke:#A80036;stroke-width:1.0;"/><!--MD5=[2e4ad316f8ad8308b9fc4796b7da8d5f]
reverse link rdf:Property to owl:ObjectProperty--><path codeLine="21" d="M350.31,202.65 C302.95,232.06 235.45,273.98 193.89,299.79 " fill="none" id="rdf:Property-backto-owl:ObjectProperty" style="stroke:#A80036;stroke-width:1.0;"/><polygon fill="none" points="346.69,196.66,367.38,192.06,354.08,208.55,346.69,196.66" style="stroke:#A80036;stroke-width:1.0;"/><!--MD5=[63d71481324fef0d72834c421d503af2]
link owl:ObjectProperty to owl:ObjectProperty--><path codeLine="24" d="M223.7,312.41 C243.31,312.81 258.51,316.67 258.51,324 C258.51,330.64 246.03,334.43 229.09,335.39 " fill="none" id="owl:ObjectProperty-to-owl:ObjectProperty" style="stroke:#A80036;stroke-width:1.0;"/><polygon fill="#A80036" points="223.7,335.59,232.8423,339.2532,228.6966,335.4044,232.5453,331.2587,223.7,335.59" style="stroke:#A80036;stroke-width:1.0;"/><text fill="#000000" font-family="sans-serif" font-size="13" lengthAdjust="spacing" textLength="81" x="264.51" y="329.4951">owl:inverseOF</text><!--MD5=[1698d827f6150a4cd5253850a77ebd51]
link rdf:Property to owl:Class--><path codeLine="26" d="M397.74,192.39 C382.9,243.68 347.56,365.85 331.59,421.06 " fill="none" id="rdf:Property-to-owl:Class" style="stroke:#A80036;stroke-width:1.0;"/><polygon fill="#A80036" points="330.2,425.87,336.554,418.3449,331.5962,421.0689,328.8722,416.1111,330.2,425.87" style="stroke:#A80036;stroke-width:1.0;"/><text fill="#000000" font-family="sans-serif" font-size="13" lengthAdjust="spacing" textLength="67" x="365.51" y="329.4951">rdfs:domain</text><!--MD5=[d6104c4ca319975ceff79b90b3692410]
link owl:ObjectProperty to owl:Class--><path codeLine="27" d="M187.53,348.03 C216.03,369.19 258.24,400.54 288.06,422.68 " fill="none" id="owl:ObjectProperty-to-owl:Class" style="stroke:#A80036;stroke-width:1.0;"/><polygon fill="#A80036" points="292.37,425.88,287.5357,417.2993,288.358,422.896,282.7613,423.7184,292.37,425.88" style="stroke:#A80036;stroke-width:1.0;"/><text fill="#000000" font-family="sans-serif" font-size="13" lengthAdjust="spacing" textLength="57" x="251.51" y="392.4951">rdfs:range</text><!--MD5=[c4416322e8be7d7214c3727dcbc4cc99]
link owl:DatatypeProperty to rdfs:Datatype--><path codeLine="28" d="M600.89,348.03 C617.53,368.87 642.05,399.58 659.67,421.65 " fill="none" id="owl:DatatypeProperty-to-rdfs:Datatype" style="stroke:#A80036;stroke-width:1.0;"/><polygon fill="#A80036" points="662.88,425.67,660.4067,416.1367,659.767,421.7573,654.1464,421.1176,662.88,425.67" style="stroke:#A80036;stroke-width:1.0;"/><text fill="#000000" font-family="sans-serif" font-size="13" lengthAdjust="spacing" textLength="57" x="638.51" y="392.4951">rdfs:range</text><!--MD5=[12de5264756f77d3b77cc0c491fe0f64]
link owl:Class to owl:Class--><path codeLine="29" d="M367.1,438.51 C385.9,437.57 402.01,441.4 402.01,450 C402.01,457.79 388.78,461.67 372.3,461.62 " fill="none" id="owl:Class-to-owl:Class" style="stroke:#A80036;stroke-width:1.0;"/><polygon fill="#A80036" points="367.1,461.49,375.9942,465.72,372.0983,461.6185,376.1998,457.7227,367.1,461.49" style="stroke:#A80036;stroke-width:1.0;"/><text fill="#000000" font-family="sans-serif" font-size="13" lengthAdjust="spacing" textLength="92" x="408.01" y="455.4951">rdfs:subClassOf</text><!--MD5=[c8bbed206d81b287eb74632cc744d5c5]
link rdf:Property to rdf:Property--><path codeLine="30" d="M452.39,157.93 C471.25,157.42 487.01,160.78 487.01,168 C487.01,174.55 474.07,177.92 457.61,178.12 " fill="none" id="rdf:Property-to-rdf:Property" style="stroke:#A80036;stroke-width:1.0;"/><polygon fill="#A80036" points="452.39,178.07,461.3554,182.147,457.3898,178.1129,461.424,174.1473,452.39,178.07" style="stroke:#A80036;stroke-width:1.0;"/><text fill="#000000" font-family="sans-serif" font-size="13" lengthAdjust="spacing" textLength="108" x="493.01" y="173.4951">rdfs:subPropertyOf</text><!--MD5=[538a61c26de25d04b05548079eb9f818]
link owl:Class to skos:Concept--><path codeLine="32" d="M323.51,474.03 C323.51,494.52 323.51,524.56 323.51,546.55 " fill="none" id="owl:Class-to-skos:Concept" style="stroke:#A80036;stroke-width:1.0;"/><polygon fill="#A80036" points="323.51,551.67,327.51,542.67,323.51,546.67,319.51,542.67,323.51,551.67" style="stroke:#A80036;stroke-width:1.0;"/><text fill="#000000" font-family="sans-serif" font-size="13" lengthAdjust="spacing" textLength="72" x="324.51" y="518.4951">rdfs:seeAlso</text><!--MD5=[d2e43886339c2356685bc5399807d4cf]
link rdf:Property to skos:Concept--><path codeLine="33" d="M356.99,171.16 C280.71,177.53 133.25,202.51 71.51,300 C6,403.43 174.69,504.07 267.39,549.64 " fill="none" id="rdf:Property-to-skos:Concept" style="stroke:#A80036;stroke-width:1.0;"/><polygon fill="#A80036" points="272.01,551.9,265.6814,544.3536,267.5181,549.7039,262.1677,551.5406,272.01,551.9" style="stroke:#A80036;stroke-width:1.0;"/><text fill="#000000" font-family="sans-serif" font-size="13" lengthAdjust="spacing" textLength="72" x="70.51" y="392.4951">rdfs:seeAlso</text><!--MD5=[56872e03e24a18610441c693a226263f]
link owl:NamedIndividual to owl:NamedIndividual--><path codeLine="34" d="M951.04,238.74 C970.9,239.12 986.01,241.54 986.01,246 C986.01,250.07 973.38,252.44 956.04,253.11 " fill="none" id="owl:NamedIndividual-to-owl:NamedIndividual" style="stroke:#A80036;stroke-width:1.0;"/><polygon fill="#A80036" points="951.04,253.26,960.1509,257.0006,956.0379,253.1168,959.9217,249.0039,951.04,253.26" style="stroke:#A80036;stroke-width:1.0;"/><text fill="#000000" font-family="sans-serif" font-size="13" lengthAdjust="spacing" textLength="71" x="992.01" y="251.4951">owl:sameAs</text><!--MD5=[56872e03e24a18610441c693a226263f]
link owl:NamedIndividual to owl:NamedIndividual--><path codeLine="35" d="M951.08,232.8 C1007.13,228.8 1069.01,233.2 1069.01,246 C1069.01,258.4 1010.94,262.91 956.35,259.55 " fill="none" id="owl:NamedIndividual-to-owl:NamedIndividual-1" style="stroke:#A80036;stroke-width:1.0;"/><polygon fill="#A80036" points="951.08,259.2,959.7975,263.7832,956.0692,259.5288,960.3236,255.8005,951.08,259.2" style="stroke:#A80036;stroke-width:1.0;"/><text fill="#000000" font-family="sans-serif" font-size="13" lengthAdjust="spacing" textLength="98" x="1075.01" y="251.4951">owl:differentFrom</text><!--MD5=[733ef6355a799355b59f6f5936fb4146]
@startuml vocabulary

class "owl:Class" [[http://www.w3.org/2000/01/rdf-schema#Class]]
class "owl:DatatypeProperty" [[http://www.w3.org/2002/07/owl#DatatypeProperty]]
class "owl:ObjectProperty" [[http://www.w3.org/2002/07/owl#ObjectProperty]]
abstract class "rdf:Property" [[http://www.w3.org/1999/02/22-rdf-syntax-ns#Property]] 
class "rdfs:Datatype" [[http://www.w3.org/2000/01/rdf-schema#Datatype]] 
class "owl:NamedIndividual" [[http://www.w3.org/2002/07/owl#NamedIndividual]] 
abstract class "owl:Thing" [[http://www.w3.org/2002/07/owl#Thing]]{ 
  [[http://www.w3.org/2000/01/rdf-schema#label rdfs:label ]]: xsd:string
 [[http://www.w3.org/2000/01/rdf-schema#comment rdfs:comment ]]  : "xsd:string" 
}

"owl:Thing" <|- -  "owl:Class"


"owl:Thing" <|- -   "rdf:Property"
"owl:Thing" <|- -   "rdfs:Datatype"
"owl:Thing" <|- -   "owl:NamedIndividual"
"owl:NamedIndividual" <|- - "skos:Concept"
"rdf:Property" <|- - "owl:DatatypeProperty"
"rdf:Property" <|- - "owl:ObjectProperty"


"owl:ObjectProperty" - -> "owl:ObjectProperty" : "owl:inverseOF"

"rdf:Property"- -> "owl:Class" : "rdfs:domain"
"owl:ObjectProperty"- -> "owl:Class" : "rdfs:range"
"owl:DatatypeProperty"- -> "rdfs:Datatype" : "rdfs:range"
"owl:Class" - -> "owl:Class" : "rdfs:subClassOf"
"rdf:Property" - -> "rdf:Property" : "rdfs:subPropertyOf"
"owl:Thing" - -> "owl:Class" : "rdf:type"
"owl:Class" - ->  "skos:Concept" : "rdfs:seeAlso"
"rdf:Property" - ->  "skos:Concept" : "rdfs:seeAlso"
"owl:NamedIndividual" - -> "owl:NamedIndividual" : "owl:sameAs"
"owl:NamedIndividual" - -> "owl:NamedIndividual" : "owl:differentFrom"

@enduml

PlantUML version 1.2022.0(Tue Jan 11 17:16:42 CET 2022)
(GPL source distribution)
Java Runtime: Java(TM) SE Runtime Environment
JVM: Java HotSpot(TM) 64-Bit Server VM
Default Encoding: Cp1252
Language: nl
Country: NL
--></g></svg>